<svg id="Layer_1" data-name="Layer 1" xmlns="http://www.w3.org/2000/svg" viewBox="0 0 1340.99 282.39"><defs><style>.cls-1{fill:#e2e1e5;}</style></defs><title>blue</title><path class="cls-1" d="M186.12,182.76c-.61-.59-6.7-1.81-13.54-2.72s-13.73-2.2-15.29-2.87h0c-3.59-1.55,28.22.7,34.27,2.42a44,44,0,0,0,8.62,1.35c4,.15,4.31.35,2.7,1.79C200.85,184.56,188,184.58,186.12,182.76Z"/><path class="cls-1" d="M204.65,175.73c2.27.09,3.19.36,2,.6a10.1,10.1,0,0,1-4.13-.16C201.44,175.85,202.38,175.65,204.65,175.73Z"/><path class="cls-1" d="M262.22,252.82c-1.13-.33-.2-.53,2.07-.44s3.2.35,2.06.59A10.27,10.27,0,0,1,262.22,252.82Z"/><path class="cls-1" d="M267.27,263.06a2.45,2.45,0,0,1-2.26,0c-.94-.4-.65-.65.73-.65S267.67,262.7,267.27,263.06Z"/><path class="cls-1" d="M270.2,252.35a10.6,10.6,0,0,1,4.65-.95c3.79.12,2.81.73-2.3,1.43C269.64,253.23,268.94,253.09,270.2,252.35Z"/><path class="cls-1" d="M72.74,110.77c-1.33,0-2.42-.6-2.4-1.22s.79-1.09,1.72-1.06a3.27,3.27,0,0,1,2.41,1.22C74.86,110.34,74.08,110.82,72.74,110.77Z"/><path class="cls-1" d="M39.21,127.55a1.18,1.18,0,0,1-1.16-1.17,1.14,1.14,0,0,1,1.21-1.08,1.17,1.17,0,0,1,1.15,1.17A1.13,1.13,0,0,1,39.21,127.55Z"/><path class="cls-1" d="M55.48,138.87a1.7,1.7,0,0,1,1.81-1.62A1.75,1.75,0,0,1,59,139a1.7,1.7,0,0,1-1.81,1.62A1.76,1.76,0,0,1,55.48,138.87Z"/><path class="cls-1" d="M336.39,212.76c-1.13-.32-.2-.52,2.07-.44s3.2.36,2.06.6A10.09,10.09,0,0,1,336.39,212.76Z"/><path class="cls-1" d="M322.86,214c-2.4.12-4.09-.17-3.76-.64h0c.33-.48,3.09-.72,6.13-.54C331,213.18,330.17,213.61,322.86,214Z"/><path class="cls-1" d="M622.3,8.14a7,7,0,0,1-3.54-.09h0c-1.14-.33-.48-.56,1.47-.51S623.11,7.86,622.3,8.14Z"/><path class="cls-1" d="M597.49,7.25c-1.13-.33-.19-.52,2.08-.44s3.2.35,2,.59A9.92,9.92,0,0,1,597.49,7.25Z"/><path class="cls-1" d="M589.23,6.91a4.8,4.8,0,0,1-3-.11c-.8-.35-.13-.58,1.49-.51S590.05,6.63,589.23,6.91Z"/><path class="cls-1" d="M826,112.68a2.47,2.47,0,0,1-2.27,0c-.93-.4-.64-.65.73-.66S826.36,112.33,826,112.68Z"/><path class="cls-1" d="M671.49,114.36c2.28.08,3.2.35,2.06.59a10.09,10.09,0,0,1-4.13-.16C668.29,114.47,669.22,114.27,671.49,114.36Z"/><path class="cls-1" d="M956.85,149.26c-1.13-.33-.2-.52,2.07-.44s3.2.35,2.06.6A10.09,10.09,0,0,1,956.85,149.26Z"/><path class="cls-1" d="M262.89,122.07c-1.13-.32-.2-.52,2.08-.44s3.19.36,2,.6A10.1,10.1,0,0,1,262.89,122.07Z"/><path class="cls-1" d="M579.15,7.59a2.45,2.45,0,0,1-2.26,0c-.94-.39-.65-.65.73-.65S579.55,7.23,579.15,7.59Z"/><path class="cls-1" d="M474.08-1.83c1.41-1.28,2.86-.87,2.82.8S469.13,1.75,461,1.2c-3.94-.27-3.26-.5,3.66-1.27C469.36-.59,473.59-1.38,474.08-1.83Z"/><path class="cls-1" d="M543.74,7.53a54.55,54.55,0,0,1-8.85-.33c-2.43-.34-.44-.46,4.43-.28S546.18,7.38,543.74,7.53Z"/><path class="cls-1" d="M228.16,14.86c-.72-.25,5.07-1.77,12.86-3.37C256.86,8.25,259.15,8,257.47,9.36,256,10.58,229.9,15.49,228.16,14.86Z"/><path class="cls-1" d="M221.94,16.12c.65,0-.17.72-1.81,1.55A13.38,13.38,0,0,1,216,19.12c-.65,0,.17-.72,1.81-1.54A13.21,13.21,0,0,1,221.94,16.12Z"/><path class="cls-1" d="M278.29,5.79c1.57.06,1.57.18,0,1.09a7.83,7.83,0,0,1-3.56,1c-1.58-.06-1.57-.18,0-1.09A8.13,8.13,0,0,1,278.29,5.79Z"/><path class="cls-1" d="M449.12.06,442,.64c-8.37.69-30.62,1.12-27.18.53,1.31-.23,6.63-.68,11.84-1h0c5.2-.33,12.38-.49,15.95-.35Z"/><path class="cls-1" d="M436.88,108.28a7.14,7.14,0,0,1-3.54-.09h0c-1.14-.33-.48-.56,1.46-.51S437.69,108,436.88,108.28Z"/><path class="cls-1" d="M1161.67,208.8h0c-.93-.39-.65-.65.73-.65s1.94.29,1.53.65A2.45,2.45,0,0,1,1161.67,208.8Z"/><path class="cls-1" d="M1129,243.65h0c-.94-.4-.65-.65.73-.66s1.93.29,1.53.65A2.45,2.45,0,0,1,1129,243.65Z"/><path class="cls-1" d="M1194.37,234.32c2.28.09,3.2.36,2.06.6a10.1,10.1,0,0,1-4.13-.16h0C1191.17,234.43,1192.1,234.24,1194.37,234.32Z"/><path class="cls-1" d="M1152.13,209.55c-.81-.34-.14-.57,1.49-.51s2.28.34,1.46.62A4.8,4.8,0,0,1,1152.13,209.55Z"/><path class="cls-1" d="M1201.2,236.22h0c-.94-.4-.65-.66.73-.66s1.93.29,1.53.65A2.48,2.48,0,0,1,1201.2,236.22Z"/><path class="cls-1" d="M1265.17,62.51c-2.86-2.21-1-2.11,2.88.15,1.69,1,2.17,1.69,1.15,1.66a8.92,8.92,0,0,1-4-1.81Z"/><path class="cls-1" d="M1233.08,80.78c-3.4-.36-.61-.44,6.21-.18s9.6.54,6.18.64A113.94,113.94,0,0,1,1233.08,80.78Z"/><path class="cls-1" d="M772.66,247.23a70.19,70.19,0,0,1-10-.38c-2.75-.34-.49-.45,5-.24S775.42,247.1,772.66,247.23Z"/><path class="cls-1" d="M1242.39,36c2.51,1,1.59,1.48-2.39,1.25-3.12-.18-3.39-.38-1.45-1h0A6.82,6.82,0,0,1,1242.39,36Z"/><path class="cls-1" d="M1300.55,112.92c.42-.61,2.06-1,3.64-1s2.87.61,2.86,1.23-1.66,1.07-3.64,1S1300.11,113.56,1300.55,112.92Z"/><path class="cls-1" d="M1179.11,179.38c1.66.06,2.47,2.12,1.14,2.85-1.6.86-3.79-.55-2.88-1.87h0A2.33,2.33,0,0,1,1179.11,179.38Z"/><path class="cls-1" d="M266.94,240.38a2.47,2.47,0,0,1,1.14,1.8,1.11,1.11,0,0,1-1.21,1c-.65,0-1.16-.83-1.14-1.8S266.3,240,266.94,240.38Z"/><path class="cls-1" d="M678.55,230.09a4.8,4.8,0,0,1-2.95-.11c-.8-.34-.13-.57,1.49-.51S679.37,229.81,678.55,230.09Z"/><path class="cls-1" d="M726.06,180.41c-.77,1.13-18.91.2-20.13-1h0c-.41-.42,4.1-.59,10-.38C722.33,179.23,726.48,179.81,726.06,180.41Z"/><path class="cls-1" d="M704.24,179.62c0,1.09-6.46,2-6.84,1-.16-.44-3.45-.82-7.31-.83a43.49,43.49,0,0,1-10.3-1.11c-2.21-.74,1.21-.9,10.6-.48C698,178.51,704.25,179.16,704.24,179.62Z"/><path class="cls-1" d="M762.38,232.11a4.8,4.8,0,0,1-3-.11c-.81-.34-.14-.57,1.48-.51S763.19,231.83,762.38,232.11Z"/><path class="cls-1" d="M648.09,243.54a2.45,2.45,0,0,1-2.26,0h0c-.93-.39-.65-.65.73-.65S648.49,243.18,648.09,243.54Z"/><path class="cls-1" d="M803.71,232.61a39.34,39.34,0,0,1-7.67-.29c-2.11-.33-.38-.47,3.84-.31S805.82,232.44,803.71,232.61Z"/><path class="cls-1" d="M756.5,231.88a7,7,0,0,1-3.54-.09h0c-1.15-.33-.49-.55,1.46-.5S757.3,231.61,756.5,231.88Z"/><path class="cls-1" d="M752,246.31a2.45,2.45,0,0,1-2.26,0h0c-.94-.39-.65-.65.73-.65S752.38,246,752,246.31Z"/><path class="cls-1" d="M1274.6,29.73c2.23,1.45-1.51.79-16.35-2.89a311.63,311.63,0,0,0-61.72-9.13c-6.44-.32-12.14-.84-12.66-1.17-.88-.56-19.82.32-29.66,1.38-3.88.41-4.34.23-3.61-1.46s.32-1.86-2.66-1.41c-1.93.3-9.6.61-17,.69s-17.52.28-22.38.44-8.41-.11-7.88-.59a4.13,4.13,0,0,1,2.36-.88c.76,0,6.18-.2,12-.43s14.61-.54,19.45-.67,9.07-.48,9.37-.75c1-.92,51.27,1.44,66,3.09,16.17,1.81,24.41,2.88,31.41,4.1C1248,21.22,1272.39,28.3,1274.6,29.73Z"/><path class="cls-1" d="M952.64.32h0c-1.46-.33-.53-.52,2.06-.44s3.8.35,2.66.59A13.6,13.6,0,0,1,952.64.32Z"/><path class="cls-1" d="M974.78.07,967.7-.31,976-.73h0c4.55-.23,10.14-.38,12.41-.32,3.64.08,3.49.18-1.2.8A83.43,83.43,0,0,1,974.78.07Z"/><path class="cls-1" d="M1086,6.43c-.93-.4-.65-.65.73-.66s1.94.29,1.54.65A2.5,2.5,0,0,1,1086,6.43Z"/><path class="cls-1" d="M1006.37-.88c-4.74.27-9.24.09-10-.4s2.58-.91,7.44-.95c21.4-.15,33,.52,48.1,2.76,8.88,1.31,16.3,2.55,16.49,2.75s-6.17.09-14.17-.24c-8.8-.36-12.42-.79-9.2-1.09l5.33-.49L1042.82.35C1033.56-1,1017.83-1.55,1006.37-.88Z"/><path class="cls-1" d="M887.71,1.23h0c-.93-.39-.65-.65.73-.65s1.93.29,1.53.65A2.45,2.45,0,0,1,887.71,1.23Z"/><path class="cls-1" d="M911.86,1c-1.13-.33-.2-.52,2.07-.44s3.2.35,2.06.59A10.08,10.08,0,0,1,911.86,1Z"/><path class="cls-1" d="M1076.27,4.48c3.24.12,4.71.39,3.25.6a22.05,22.05,0,0,1-5.9-.21h0C1071.83,4.55,1073,4.38,1076.27,4.48Z"/><path class="cls-1" d="M861.64,1.36c-.8-.35-.13-.58,1.49-.52s2.28.35,1.46.63A4.8,4.8,0,0,1,861.64,1.36Z"/><path class="cls-1" d="M577.54,178.89a2.5,2.5,0,0,1-2.27,0c-.93-.4-.64-.65.73-.65S577.94,178.53,577.54,178.89Z"/><path class="cls-1" d="M828.54,2.44c-2.1-.33-.37-.47,3.85-.31s5.94.43,3.82.6A39.4,39.4,0,0,1,828.54,2.44Z"/><path class="cls-1" d="M843.35,1.83h0c-1.15-.33-.49-.55,1.46-.5s2.88.32,2.08.59A7,7,0,0,1,843.35,1.83Z"/><path class="cls-1" d="M494.48,106.53c-10.06-.09-15.64-.4-12.38-.69,6.31-.57,32-.19,31.19.47C513,106.52,504.55,106.62,494.48,106.53Z"/><path class="cls-1" d="M231.51,124.18a2.45,2.45,0,0,1-2.26,0c-.93-.39-.65-.65.73-.65S231.91,123.82,231.51,124.18Z"/><path class="cls-1" d="M227.91,120.9c.6-.88,6.39-1.1,6.37-.24,0,.24-1.58.59-3.5.79S227.57,121.4,227.91,120.9Z"/><path class="cls-1" d="M177.48,124.85a1.14,1.14,0,0,1-1.21,1.08,1.17,1.17,0,0,1-1.15-1.17,1.14,1.14,0,0,1,1.2-1.08A1.19,1.19,0,0,1,177.48,124.85Z"/><path class="cls-1" d="M83.83,75.26c.17-.07.29.37.28,1s-2,1-4.45.81l-4.43-.31,4.15-.68h0C81.67,75.7,83.67,75.34,83.83,75.26Z"/><path class="cls-1" d="M130.88,133.93a2.47,2.47,0,0,1-2.27,0c-.93-.39-.64-.65.73-.65S131.28,133.57,130.88,133.93Z"/><path class="cls-1" d="M234.65,181.11c3.13.12,5.32.55,4.85,1-.89.8-9.13.26-10-.65C229.18,181.13,231.51,181,234.65,181.11Z"/><path class="cls-1" d="M233.54,189.64a2.47,2.47,0,0,1-2.27,0c-.93-.39-.64-.65.73-.65S233.94,189.28,233.54,189.64Z"/><path class="cls-1" d="M559.24,179.39a4.8,4.8,0,0,1-3-.11c-.8-.34-.13-.57,1.49-.51S560.06,179.11,559.24,179.39Z"/><path class="cls-1" d="M213.58,184.38a2.47,2.47,0,0,1-2.27,0h0c-.93-.39-.64-.65.73-.65S214,184,213.58,184.38Z"/><path class="cls-1" d="M222.2,183.07c1.62.06,2.28.34,1.46.63a4.8,4.8,0,0,1-2.95-.11C219.9,183.24,220.57,183,222.2,183.07Z"/><path class="cls-1" d="M626.46,110.92c-.93-.4-.64-.65.73-.66s1.94.29,1.54.65A2.47,2.47,0,0,1,626.46,110.92Z"/><path class="cls-1" d="M541.74,112c-.28-.29,1.14-.46,3.15-.39s4,.68,4.4,1.33C550,114.06,542.93,113.18,541.74,112Z"/><path class="cls-1" d="M551.49,106.94a7,7,0,0,1-3.54-.09h0c-1.14-.33-.48-.55,1.47-.5S552.3,106.67,551.49,106.94Z"/><path class="cls-1" d="M533.05,111.9c-.81-.35-.14-.58,1.48-.52s2.29.34,1.47.63A4.8,4.8,0,0,1,533.05,111.9Z"/><path class="cls-1" d="M469.6,106.49c-1,.53-8.22,1-16,1l-14.1,0,12.42-.59c6.83-.32,13.22-.75,14.2-1h0a22.73,22.73,0,0,1,3.55-.41C471.21,105.53,471.19,105.67,469.6,106.49Z"/><path class="cls-1" d="M581.43,113.92c.52-.46,7.05-.77,14.51-.69s15.95.19,18.87.24l5.32.09-5.93.67C605.84,115.18,580.3,114.94,581.43,113.92Z"/><path class="cls-1" d="M567.25,114.36c-1.46-.33-.26-.5,2.66-.39s4.11.37,2.65.59A17.85,17.85,0,0,1,567.25,114.36Z"/><path class="cls-1" d="M243.4,172a2.5,2.5,0,0,1-2.27,0c-.93-.4-.64-.65.73-.66S243.8,171.61,243.4,172Z"/><path class="cls-1" d="M553.3,114.16a1.13,1.13,0,0,1-1.08-1.16c0-.62.85-1.1,1.86-1.06s1.5.56,1.09,1.17A2.5,2.5,0,0,1,553.3,114.16Z"/><path class="cls-1" d="M559.11,111.77h0c-.93-.39-.65-.65.73-.65s1.94.29,1.54.65A2.48,2.48,0,0,1,559.11,111.77Z"/><path class="cls-1" d="M664.71,9.08a173.6,173.6,0,0,0-19.13.35C631.87,11,614.33,11.48,584.7,11.1c-16.88-.22-31.1-.18-31.58.08s-10.32.3-21.86.09c-20.33-.36-38.91-.22-52.29.4-3.58.16-11.29.38-17.14.47s-16.22.43-23.05.74-17.95.4-24.71.21S401.4,13,401,13.19s-10.3.64-21.88.86-23.23.77-25.9,1.21c-5.68.93-35.85,1.46-34.92.61.74-.66,27.35-2.45,55-3.7,10.41-.46,23.45-1.2,29-1.63,16.44-1.27,38.73-2,75.07-2.51C496.13,7.78,515.81,7.3,521,7c7.62-.48,6.69-.57-4.71-.46-7.8.08-17.1.13-20.68.11-47.22-.26-76.9.34-96.32,2-7.16.59-17.8,1.21-23.65,1.37-23.29.66-85.77,5.56-88.28,6.92S262.26,19.81,261,18.74c-.88-.74-3.05-.84-6.07-.27a115.84,115.84,0,0,1-13,1.23,120.87,120.87,0,0,0-14.81,1.6c-7.29,1.42-21.85,2.68-36.1,3.14-5.2.17-13.45.63-18.33,1s-17.13,1.21-27.21,1.82-22.07,1.66-26.64,2.35-11.22,1.49-14.8,1.77a51,51,0,0,0-10.68,2c-2.29.82-9.19,2-15.32,2.68-12.34,1.32-23.82,4-23.85,5.51,0,.89,2.21.6,7-.92,1-.33,1.43,0,1.07,1s-4.57,2.25-9.91,3.21a81.59,81.59,0,0,0-9.8,2.1c-.27.24,2,.44,5.1.45,6.9,0,8.23,2.28,2.59,4.39-2.18.81-3.71,1.54-3.39,1.61s4.84.43,10,.79c5.62.39,11.8,1.6,15.28,3,3.94,1.57,9.33,2.52,16.47,2.91,5.84.31,11.94,1.14,13.54,1.85l2.93,1.28-3.57,1.19a26.8,26.8,0,0,1-7.1,1.16,17.29,17.29,0,0,0-7.14,2c-3.4,1.88-3.44,2-.64,1.58,19.3-2.65,23.71-2.71,24.38-.35.76,2.62-6.11,5.25-14.59,5.59-4.73.19-8.94.66-9.36,1-.89.79,25.82,1.14,33.45.43,5.58-.52,8.47,1,8.39,4.38a2.84,2.84,0,0,1-2.13,2.52c-1.83.43-39.9-.34-56.67-1.15-3.41-.16-6.2.11-6.22.6-.05,2.29,8.35,4.86,16.9,5.18,9.2.34,11.54,1.8,5.86,3.63-4.57,1.47-18.27.64-24.8-1.51-11.16-3.68-9.91-1.44,1.52,2.72,9.58,3.49,16.43,3.64,28,.61,11.77-3.07,25.68-5.21,32.26-5,3.59.14,5.62.9,7.32,2.74,1.29,1.41,2.34,2.93,2.33,3.38s1.57,1.22,3.52,1.71c3.59.89,11.62,7.64,11.57,9.72,0,1.09-17.1,3.55-19.56,2.82a55.19,55.19,0,0,0-8.75.27c-8,.66-14.83,2.61-16.23,4.64-.47.68-2.79,1.94-5.17,2.81l-4.32,1.59,3.52,1.07a10.11,10.11,0,0,0,7.09-.36c2-.8,8.25-1.51,14-1.58s10.72-.43,11.14-.81c1.45-1.29,8.8-.36,10.47,1.33,1.47,1.49,1.07,1.84-3.22,2.77-2.7.59-4.7,1.28-4.45,1.53.67.68,14.21-2.14,17-3.54a16,16,0,0,1,4.76-1.42c1.3-.12,5-.48,8.17-.81,4.28-.44,5.58-.26,4.94.68-.48.7-.71,1.27-.51,1.28.83,0,17.35-2.69,22.07-3.63,4.16-.83,5.58-.69,7.63.78,1.54,1.11,5.14,1.91,9.27,2.06,3.71.14,7.06.77,7.45,1.41.84,1.37,9.77,1.76,16.81.73,2.8-.41,5-.3,5,.24s2.4,1.07,5.36,1.18c5.73.21,6.35,2.39.69,2.41-2,0-2.42.23-1.13.6,2.36.68,2.73,2.62.53,2.8l-4.44.37c-1.63.14-10.93.22-20.68.19-24.43-.09-41.3,1-49.4,3.31a54.22,54.22,0,0,1-13.87,1.66c-5.73-.22-7.27.13-8.3,1.85-.69,1.16-2.87,2.39-4.83,2.72-3.88.67-4.36,1.47-2.21,3.66,1.1,1.11.84,1.91-1.17,3.72-2.51,2.25-2.68,2.26-7.64.17a32.64,32.64,0,0,1-7.09-4c-1.41-1.29-2-1.43-2-.45-.06,2.5,6.69,7.49,12.44,9.2,6.77,2,63.63,4.49,69.77,3,2.19-.52,10.44-1.27,18.35-1.68s16-.86,17.93-1l26.63-2.12c12.69-1,23.88-1.89,24.85-1.93s7.37-.58,14.2-1.2,26.26-1.44,43.16-1.82,40.05-1.34,51.44-2.12c26.1-1.78,51.18-2.61,73.88-2.45,9.75.07,19.79-.07,22.32-.32,3.24-.32,4.35-.09,3.75.78s1.2,1.32,5.91,1.49c16.37.62-2.3,2.06-34.45,2.66-6.5.12-14.21.35-17.14.52s-13,.53-22.46.8-21.31.88-26.41,1.34-12.29.89-16,.95c-6.61.1-23.8,1-44.55,2.37-10.73.7-38.18,1.25-68.35,1.37-9,0-17.55.45-19,.92-4,1.3-16.66,3.63-28,5.17-5.54.75-10.65,2.06-11.36,2.92s-3.92,1.65-7.13,1.77l-5.84.21,5.6.41c4.7.35,5.6.77,5.55,2.62,0,1.65-1.15,2.35-4.49,2.82-5.45.75-13.15,3.58-16.38,6-2.41,1.8-2.41,1.8,0,1.1,10.15-3,14.81-3.67,27.34-4,8.82-.21,15.62-1,17.8-1.94s4.25-1.19,5.25-.63c1.63.92,26-.09,42.53-1.76,12.68-1.28,27.31-1.18,26.39.17-.55.79-.06.91,1.46.36,1.26-.44,10.52-.69,20.59-.55s19.1,0,20.09-.36,6.71-.45,12.73-.23,11.2,0,11.51-.42,3.35-.53,6.77-.18,5.55.22,4.67-.36c-1.58-1,3.58-1.5,27-2.53,6.83-.3,18.27-.88,25.43-1.28,15.26-.87,47.05-1.77,59.69-1.69,17.62.12,42.94-.21,43.62-.55.39-.19,11.33-.28,24.32-.2s29.21.12,36,.09c54.52-.25,72,0,109.82,1.79,23.68,1.1,43.46,2.08,44,2.18s.86.91.84,1.8c0,1.77,4,3.58,5.76,2.6.93-.51,30.18.06,40.19.79,2.58.19,2.7.39,1.1,1.83-1.28,1.15-4.84,1.58-12.2,1.49-5.71-.07-10.64.23-10.94.68s-1.84.19-3.4-.55c-2.16-1-3.29-1-4.69,0-1,.75-1.82.92-1.81.38,0-1.27-49.47-3.14-52.24-2a3.8,3.8,0,0,1-4.05-.73c-1.65-1.36-1.8-1.36-1,0s-.92,1.4-10.73.37c-7.42-.78-12.89-.84-15-.16-2.45.79-3.09.74-2.46-.18s-4.58-1.22-20.28-1.15c-11.63.05-29.46-.17-39.62-.49s-18.24-.19-18,.28-.69.44-2.18-.08-9.62-1-18.06-1c-13.49-.06-14.35.05-7.11.86,5.54.62-1.27.86-20.69.75-15.91-.1-39.3-.11-52,0-33.7.22-54.68.09-89.72-.56-30.21-.56-56,.11-88.1,2.29-8.46.57-18.31,1.21-21.89,1.42s-8.64.52-11.24.7c-10.54.72-30.92,1.69-33.48,1.59-1.5-.05-2.45.35-2.12.9.58.94-11.76,2.3-23.06,2.53-1.34,0-2.12.56-1.74,1.18s-.67.83-2.89.32-3.59-.36-3.61.36-1,1.42-2.11,1.72.53.39,3.72.22,6.41-.77,7.17-1.34a6.74,6.74,0,0,1,3.68-.92c1.27,0,7.9-.48,14.74-1.17s21-1.72,31.36-2.28,25.58-1.49,33.71-2.09,26-1.49,39.62-2,26.43-1,28.38-1.14,14.71-.07,28.35.15,22.52.54,19.74.71c-3.26.21-4.78.78-4.28,1.59s.23.93-.51.46-7.18-.69-14.41-.55c-7.51.16-12.49.69-11.62,1.24s-2.32.52-7,0c-5.37-.63-8.55-.58-8.56.12s-6.55,1.49-14.52,1.93-15.69,1-17.16,1.23c-1.78.29-2.65-.1-2.63-1.17s-.81-1.46-2-1.24-11.86.79-23.83,1.29-22.21,1.18-22.77,1.48c-1.69.92-1.19,2.47,1,3.1,1.13.33-.87.47-4.44.31s-5-.43-3.23-.63,3.27-.84,3.28-1.45-1.7-.91-3.82-.68-7.84.57-12.72.76c-11,.43-47.5,3.2-49.11,3.73-2.27.75,9.46.87,14.38.15,4.22-.62,5-.43,5.45,1.3s2.16,2.14,12.43,2.84c6.56.44,11.94.37,11.95-.16s1.89-.57,4.18-.07,10.4.62,18,.27,24.48-1,37.49-1.53c31.4-1.19,69.16-3.37,78.46-4.53a56.45,56.45,0,0,1,13.21,0c3.13.51,6,.49,6.37-.06s5.35-.8,11-.56,11.53-.1,13-.77a20.21,20.21,0,0,1,7.68-.95c4.12.22,4.64.46,2.71,1.25s-1.49.89,1.61.55a60,60,0,0,1,6.51-.36c1.87.06,2.1-.19.92-1-1-.62,6.07-1.07,17.74-1.13,10.64,0,21.2-.17,23.48-.27s12.11-.17,21.85-.18,27.29,0,39-.05c25.21-.06,65.24,1.45,76.42,2.88,4.47.57,8,.57,8,0s-2.76-1.31-6.16-1.66,13.46.1,37.48,1,38.54,1.64,32.27,1.61c-10.2-.06-11.34.14-10.89,1.94s-.48,2-8.14,1.74c-4.75-.14-22.13-.39-38.63-.54-27.3-.24-29.93-.43-29.22-2,1-2.37-.28-2.32-2.22.07-1.17,1.44-4,2-11.41,2.28l-9.85.35,11.51.22c6.33.12,11.51.53,11.5.9,0,1.07-22.23.55-23.89-.56s-19.75-2-19.78-1.07c0,.33-2.2.31-4.88,0-3.38-.44-4.63-.23-4.08.66s-1.28,1.16-6.07.86l-6.85-.44,5.92-.55c5.45-.51,5.18-.59-3.52-1.06-6.46-.36-8.89-.15-7.69.64s-.4.92-5,.42c-3.83-.42-6.79-.28-6.8.33s-3.08.89-6.81.69c-5.18-.28-6.08-.55-3.81-1.16l3-.79-3.1-.23a6.49,6.49,0,0,0-4.61,1.41,5.59,5.59,0,0,1-4,1.46c-2.45-.17-2.45-.19-.13-1,1.74-.64.78-.93-3.52-1.05-5.08-.14-5.41,0-2.38.83s2.75,1-2.38.88c-4.4-.07-5.45-.38-4.11-1.2s-4.84-1.14-20.05-1.22c-33.41-.19-40.51,0-41.28,1-.39.53-11.34.89-24.33.8s-29.47.18-36.63.59-17.53.75-23.05.74c-28.31-.05-63.42.51-74.45,1.19-6.83.42-15.08.9-18.34,1.08a216.33,216.33,0,0,0-23.09,2.78c-5.65,1-22.26,2.57-30.2,2.94-2.6.12-9.65.39-15.67.6s-11.25.82-11.62,1.36-2.37.92-4.44.86c-3.77-.13-11.91,1.81-13.47,3.21-.45.41-3.53.65-6.83.53s-6.8.26-7.79.82c-1.31.75-.42,1.08,3.31,1.23,5,.21,5.09.29,4.31,3.35-.58,2.27-.23,3.61,1.27,4.84,5.22,4.28,7,4.74,15.29,3.81a402.93,402.93,0,0,1,41.83-2.33c6.88,0,16.2-.4,20.69-.87,14-1.46,25.56-2.26,35.38-2.45,11.1-.21,8.18.51-13.07,3.27-17,2.2-38.37,5.79-49.8,8.36a67.76,67.76,0,0,1-10.9,1.77c-1.42-.05-2.93.4-3.34,1s-2,1.05-3.64,1c-2.09-.08-2.89.51-2.93,2.15,0,1.82-.91,2.25-4.48,2.26-2.44,0,.6.55,6.76,1.2s12,.81,13.08.37,6-.65,11-.46c7,.26,9.26.74,9.75,2,.94,2.51-.19,3-7.38,3.32-3.57.15-6.51.7-6.52,1.22s.91.72,2.06.43.73.24-.92,1.19l-3,1.73,4.15-.58c2.28-.32,7.87-.63,12.42-.69,8.64-.12,14.34-.34,37.83-1.49,7.81-.39,17.12-.73,20.69-.78,15-.17,41.06-1.34,62.09-2.77,12.36-.84,24.75-1.48,27.53-1.42s5.36-.34,5.74-.89,3.54-.56,7.19,0c4.35.69,6.77.61,7.34-.21,1.94-2.83,110-4.55,181.49-2.91,26,.6,48,.91,49,.7,2.54-.57,91.19.94,131.66,2.23,13,.42,25.21.72,27.16.68s6.46.06,10,.24c13.34.66,21.37,1,49,1.92,23.3.79,61,2.81,89.08,4.76,7.73.53,2.55,2.15-6.55,2-8.09-.11-20.43,1.07-16,1.51,2.83.29,2.85.35.55,1.58-1.77,1-15.58.84-53.14-.43-70.57-2.4-206.57-6.32-242-7-70-1.29-126.37-1.87-142.31-1.46-9.43.24-27.24.59-39.59.78-31.08.47-77.06,2.61-94,4.37-14.66,1.51-43.26,2.85-60.31,2.8-31.62-.08-53.2,1.64-53.26,4.25,0,1.35-1.34,1.34,18.31.09,9.11-.58,22.4-.84,29.54-.58,15,.55,56.31-.76,65-2.07,6.46-1,11.32-1.38,23.08-2,4.23-.21,12.21-.71,17.75-1.1s14.57-.81,20.1-.92,13.24-.55,17.15-1,14.55-.77,23.64-.79,27.71-.33,41.36-.7c53.31-1.44,206.94,2.6,360.66,9.51,34.08,1.53,60.09,2.89,57.81,3s-11.85.43-21.27.67-20.61.83-24.84,1.33c-8,.94-72.76.43-135.82-1.08-31.79-.76-80.46-1-102.76-.46-4.23.09-16.86,0-28.08-.21-13.56-.26-20.88,0-21.82.88-.78.7-4.71,1.15-8.78,1-7.94-.3-11.9,1.67-4.37,2.18,11.94.8,72,2.71,126.65,4,104.33,2.52,276.46,9.45,271.44,10.93-2.21.66-1.54.8,2.63.57,16.22-.91,28.61-.76,26.88.33-1.46.92-1.25,1.15,1.16,1.23a44.16,44.16,0,0,0,7.69-.78c2.61-.48,13.22-.86,23.58-.84s19.16-.15,19.56-.37,11.87-.55,25.48-.75,30.61-.83,37.77-1.43c27.58-2.29,44.86-4.47,45.76-5.79.69-1,8.14-1.17,28.37-.66,15.08.39,27.73.4,28.12,0s-7.81-.76-18.21-.86c-13-.14-17.42-.47-14.15-1.06a52.09,52.09,0,0,1,9.47-.66c3.47.15,4.1-.05,2.38-.77s-.14-1.11,5.43-1.47c7.69-.5,15.62-3.6,13.18-5.15-1.09-.69-15.21-1.59-23.74-1.51a96.7,96.7,0,0,1-10.91-1.29c-5.38-.88-12.64-1-22.43-.4-17.81,1.12-20.62,1.08-19.12-.24.63-.56,5.94-1.4,11.8-1.86s13.27-1.31,16.48-1.87,12.52-1.12,20.7-1.25l14.87-.24-17.11-.74c-9.41-.4-21.64-.48-27.17-.18L1149,242.56c-8.3.46-15.09,1.34-15.11,1.94s-2.66.72-6.79.13A59.58,59.58,0,0,0,1111,245c-10.67,1.55-23.72,1.42-20.86-.21,1-.57,1.2-1.06.46-1.09a4.3,4.3,0,0,0-2.73,1.45c-1.39,1.51-4.9,1.63-47.71,1.64-12.6,0-16.19-1.3-6.4-2.33a33.5,33.5,0,0,0,8.49-2.08c4.78-2.16,16-3.06,37.38-3,10.07,0,20.18-.33,22.47-.79s10.54-1.19,18.34-1.59,18.72-1.06,24.25-1.45,15.64-.81,22.47-.94a124.43,124.43,0,0,0,20.13-2c4.24-1,10.78-2.23,14.53-2.8s6.83-1.58,6.84-2.23c0-.83-10.3-1.43-33.3-1.94-35.86-.81-38.62-2-6.16-2.72,31.22-.67,34-.79,39-1.83a67.76,67.76,0,0,1,11.25-.92l6.49.05-5.29-.89-5.3-.9,4.48-1.31c2.45-.72,4.18-1.79,3.82-2.37-.84-1.38-33.91-2.6-50.69-1.88-15.74.68-65.22.37-64.37-.4.33-.3,6.19-.66,13-.79,19.27-.38,27.19-1,26.53-2.09-.34-.55-1.77-1.1-3.19-1.23-3-.28,6.16-1.34,21.09-2.43,5.86-.43,15.45-1.4,21.31-2.15s15.2-1.86,20.73-2.45,8.5-1.19,6.59-1.34c-2.73-.22-3.16-.56-2-1.59.8-.72,5.84-1.47,11.2-1.66l9.74-.35-8.26-.51c-9.54-.6-8.36-2,2.29-2.75,10.11-.7,10.8-1.89,1.66-2.88-4.38-.48-7.95-1.37-7.91-2,.07-1.55-17.54-3.1-28-2.47-4.71.28-13.48.52-19.5.52s-20.26.32-31.64.72c-22.84.78-33.72-.71-36.36-5-1-1.61-1-2.11.2-2.12,7.56-.12,19.48-2.92,28.6-6.73,5.73-2.4,10.56-3.44,18.23-3.93,5.74-.36,13-1,16.1-1.4s5.94-.29,6.27.25-.76,1-2.43,1c-4.51,0-5.1.14-6.17,1.1-.54.48,1.94.71,5.5.5s12.73-.47,20.37-.58,13.89-.6,13.9-1.08,2.81-1,6.23-1.15,13.11-.91,21.55-1.67c11.28-1,15.89-1,17.37-.09,1.3.84,2.29.92,2.77.23,1.17-1.71-.2-3-4.06-3.91a6,6,0,0,1-4.63-3.7c-1.25-3.39-1.49-3.45-5.29-1.25-2.28,1.32-3.74,1.41-6.76.41-2.12-.7-5.44-1.72-7.38-2.27-3.33-.94-3.2-1,2.4-1.6,12.4-1.26,37.86-1,45.47.55,5,1,7.79,1.13,8.06.42s1.7-1.05,3.27-1,2.87-.4,2.88-1c0-1.17-23.51-2.83-40.39-2.85-5,0-9.15-.3-9.14-.64a9.56,9.56,0,0,1,2.43-2.79c3.35-3,3-4.39-1-4.54-5.53-.21-5.18-2,.64-3.37a32.15,32.15,0,0,1,19.75,2.44c4.43,2.3,6.19,2.39,4.42.23-.76-.93-4-2.61-7.15-3.74-6.8-2.43-7.51-3.64-1.43-2.47,2.42.47,3.85.39,3.25-.18-1.16-1.11-25.26-6.11-40.63-8.42a668,668,0,0,0-69-5.94c-14.84-.44-21.67-1-22.22-1.94-.44-.72-.61-1.45-.37-1.63s8.66-.4,18.73-.51,20.44-.24,23-.3,11.64-.21,20.09-.32,17.25-.58,19.55-1c4.83-1,17.55-.58,23.58.7l4.11.88-3.56.64a63.15,63.15,0,0,1-9.5.54c-5-.07-6,.25-6,2.07s1.13,2.29,8.83,3.2c4.88.58,15.13,1.47,22.77,2l13.89.94-5-4.06c-2.73-2.22-6.15-4.39-7.6-4.82s-2.63-1.21-2.62-1.77c0-1.2,10.27-.82,17.87.66a70,70,0,0,0,14.66.4c10-.74,18.72.41,15.75,2.07-.94.53-4.59.86-8.11.74-10.1-.35-6.57.59,7,1.86,6.81.64,15.76,1.6,19.89,2.14,6.08.79,7.41.68,7-.59s-3.09-1.71-10.24-2.06c-8.9-.44-10-.74-12.81-3.61-2.61-2.66-2.8-3.3-1.29-4.15s.78-1.09-2.33-1.34c-2.27-.19-.22-.54,4.54-.78,5.51-.27,9.08-1,9.78-2,1.65-2.34,1.46-2.76-1.95-4.38-2.33-1.12-10.24-1.56-31.56-1.77-25.59-.26-28.61-.48-30-2.2-.86-1-3.23-2-5.26-2.13a21,21,0,0,1-6-1.27c-2.59-1.17-2.11-1.21,15.39-1.2,9.75,0,25.71-1.36,21-1.79-1.46-.14-2.65-.64-2.63-1.11.06-2.79-9.12-5.27-21.72-5.88-3.25-.15-6.52-.77-7.29-1.37s-4.88-1.38-9.15-1.72-8.08-.93-8.45-1.3c-1-1,2.78-4,5.21-4.09,1.25,0,.68-.51-1.36-1.14-2.74-.84-2.35-.9,1.78-.26,2.91.44,9.72,1.17,15.13,1.6s10.51,1.36,11.32,2,4.5,1.19,8.19,1.12c3.93-.08,7,.38,7.51,1.11s2.12,1.39,3.74,1.57,4.4.61,6.18,1c12.34,2.5,12.92,2.56,12.16,1.31a4.07,4.07,0,0,0-3-1.36c-2.13-.08-4.38-4.17-3-5.42.37-.33,2,.29,3.64,1.39,2.76,1.86,3,1.87,3.76.15.81-1.87-3.35-6.14-6.13-6.3a17.45,17.45,0,0,1-4.68-1.88,16.38,16.38,0,0,0-5.34-1.9,3.56,3.56,0,0,1-2.61-1.09c-.77-1.27,30.76.74,39.35,2.52,7,1.44,11.39,1.82,10.49.9-1.7-1.72-20.61-4.23-39.84-5.28-18.38-1-22.48-1.54-25.91-3.41-4.49-2.44-9.59-3.51-24.72-5.22-5.53-.62-10.81-1.8-11.75-2.62-3-2.59-10.49-7.43-11.62-7.47-.59,0-2-1.09-3.23-2.38s-5-2.93-9.11-3.82c-3.83-.82-7.93-2.36-9.1-3.44-1.51-1.37-4.91-2.17-11.39-2.7-7.48-.6-9.63-1.2-11.32-3.12l-2.09-2.38,23,1.78c30.93,2.39,44.67,3,46.38,2,.92-.52.56-.84-1-.91a6.29,6.29,0,0,1-3.51-1.18c-.61-.59-3.48-1.66-6.39-2.37-4.71-1.17-4.9-1.33-1.73-1.47,6.55-.31-17.49-2.62-35.59-3.42-10.54-.46-18.22-1.27-18.63-1.94-1.72-2.82,42.61.09,61.13,4l8.43,1.79h-5.91c-5.21,0-4.59.25,5.27,2,6.15,1.11,12.88,2.08,15,2.15a43.37,43.37,0,0,1,9.41,2c7.33,2.41,10.93,2.53,11,.36.07-3.14-12.81-7.31-31.66-10.26-32.35-5.07-36.2-5.44-54.8-5.34-10.4.05-24.49,0-31.31,0s-19-.06-27.17,0a165.18,165.18,0,0,1-29.37-2.13c-15.16-2.38-18.65-3.44-11.74-3.55,13.48-.21-35.62-3.5-87.38-5.85C964.17,8.17,931,6.56,923.85,6.1s-15.37-.79-18.3-.74h0c-2.92,0-11.7.39-19.51.75-43.26,2-46.74,2-98.65.73-14-.35-31.77-.21-39.58.31-38.6,2.58-68.58,3.08-67.24,1.13.35-.5.1-.94-.55-1a2.53,2.53,0,0,0-1.93,1C677.67,9,671.75,9.3,664.71,9.08Zm587.16,82c5.24.09,10.73.68,12.2,1.3h0c2.46,1,2.48,1.14.31,1.21-5.51.17-17.54-.91-19.7-1.75C1243.3,91.24,1246.22,90.93,1251.87,91Zm-18.33-4.68a4.8,4.8,0,0,1-3-.11c-.8-.35-.13-.58,1.49-.52S1234.36,86.06,1233.54,86.35Zm4.83,33.82c11.82-.71,14.43-.55,17.1,1.09,1.9,1.17-10.41,1.5-20.32.55l-9.2-.88ZM1210.5,99.24c1.64-.43,6.1-.42,9.92,0s9.66.94,13,1.12c5.44.31,5.65.42,2.18,1.07-4.86.91-22.6.51-25.69-.59C1207.7,100.07,1207.74,100,1210.5,99.24Zm-7.8,1.07c1.25,0,1.94.29,1.54.65h0a2.5,2.5,0,0,1-2.27,0C1201,100.57,1201.33,100.32,1202.7,100.31Zm-7.57-.11c2.27.09,3.19.35,2,.59h0a10.27,10.27,0,0,1-4.13-.15C1191.92,100.31,1192.85,100.12,1195.13,100.2Zm-26.81-2.78a4.69,4.69,0,0,1-3-.11c-.8-.34-.13-.57,1.49-.51S1169.13,97.14,1168.32,97.42Zm6.46.18h0a2.48,2.48,0,0,1-2.26,0c-.93-.4-.65-.66.73-.66S1175.18,97.24,1174.78,97.6Zm7.11-.86h0a2.48,2.48,0,0,1-2.26,0c-.94-.4-.65-.66.73-.66S1182.29,96.38,1181.89,96.74Zm-19.57,4.56c2.44-.17,4.45-.8,4.46-1.41s3.74-.84,9.17-.44c5,.37,9,1.14,8.82,1.71s-6.29.9-13.6.74S1159.88,101.46,1162.32,101.3Zm-10.63-76.59a27.66,27.66,0,0,1-6.49-.24c-1.78-.33-.31-.48,3.26-.35S1153.49,24.52,1151.69,24.71ZM1142,98c4.17-1.12,4.52-1.1,5.31.19.43.7-1.07,1-3.79.88C1139.56,98.77,1139.38,98.65,1142,98Zm54.35,37.62c-8.81-1.16-10.09-1.59-8.85-2.94,1-1,2.75-1.33,5.15-.86,2,.39,4.44.28,5.37-.24,2.06-1.15.49-1.25,20.87,1.32h0c15.55,2,22.3,3.56,15.44,3.66-1.57,0-4.46.21-6.41.43C1221.82,137.62,1207.1,137,1196.37,135.57Zm-.43,19.31c-1.46-.33-.54-.52,2.06-.44s3.79.35,2.66.59h0A13.59,13.59,0,0,1,1195.94,154.88Zm-1.15,10.61c1.62.06,2.28.34,1.46.62a4.8,4.8,0,0,1-3-.11C1192.5,165.66,1193.17,165.43,1194.79,165.49ZM1187,146.84c4-.61,24.84.85,25.84,1.8h0c1.44,1.36-2.15,1.41-15.36.18C1187,147.85,1184,147.28,1187,146.84Zm.72,19.59c2.27.09,3.2.35,2.06.6h0a10.14,10.14,0,0,1-4.14-.16C1184.48,166.54,1185.41,166.35,1187.68,166.43Zm-8.28.73c1.62.07,2.28.35,1.46.63a4.8,4.8,0,0,1-2.95-.11C1177.1,167.33,1177.77,167.1,1179.4,167.16Zm-40.71,23.28c1.63.06,2.28.34,1.46.62a4.8,4.8,0,0,1-3-.11C1136.4,190.61,1137.07,190.38,1138.69,190.44Zm-18.41.34c1.24,0,1.93.29,1.53.65a2.45,2.45,0,0,1-2.26,0C1118.61,191,1118.9,190.79,1120.28,190.78Zm-10.63-.39c1.25,0,1.94.29,1.54.65a2.45,2.45,0,0,1-2.26,0C1108,190.64,1108.28,190.39,1109.65,190.39ZM935,254.8h0c-2.33,1.19-24.44,2-23.26.85.44-.43,5.51-1,11.26-1.27C938.29,253.66,937.29,253.62,935,254.8Zm-473.81-51h0a2.45,2.45,0,0,1-2.26,0c-.93-.39-.65-.65.73-.65S461.59,203.47,461.19,203.83Zm23.51-19.35a4.8,4.8,0,0,1-2.95-.11c-.8-.34-.13-.57,1.49-.51S485.52,184.2,484.7,184.48Zm29.85-.75h0c-.44.63-5.39.83-11.6.48l-10.84-.62,10.63-.3c5.85-.17,11.07-.39,11.6-.48S515,183.12,514.55,183.73Zm9.17,0h0a7.16,7.16,0,0,1-3.54-.1c-1.14-.32-.48-.55,1.47-.5S524.53,183.41,523.72,183.69Zm10,.41a10.1,10.1,0,0,1-4.13-.16c-1.13-.32-.19-.52,2.08-.43S534.88,183.86,533.73,184.1ZM591,207h0a8.4,8.4,0,0,1-5.21.28c-1.67-.47-3.38-.34-3.81.28s-12.58.93-31.43.64c-16.86-.27-35.44-.46-41.29-.43-32.56.17-40.77.26-59.08.64-11.05.23-25.94.46-33.08.5s-15.67.45-18.92.91-9.88,1-14.7,1.15-9.68.73-10.78,1.24a8.57,8.57,0,0,1-5.41-.17c-3.19-1-3.22-1.1-.5-1.09,1.71,0,2.44-.4,1.79-1-1.26-1.16-21.87-.13-23.38,1.18-1,.88,6.3.86,13.08,0,2.85-.38,3.84-.1,3.81,1.07s-2.83,1.67-11.56,1.94c-6.34.2-13.12.51-15.08.69-5.19.48-34.83,1.47-35.8,1.2-1.54-.42-9.08,1.3-11.52,2.63-2.88,1.58-25.09,2.23-26,.76-.77-1.25,9.54-3.13,33.59-6.14,17.15-2.14,21.92-2.1,17.86.17-1.54.86-1.54,1,0,1.07a4.57,4.57,0,0,0,3.24-2c1.1-1.58,3.47-2.24,9.5-2.62,10.41-.66,10.2-.63,11.6-1.39s18.49-1.55,28.09-1.41c3.09,0,5.62-.22,5.63-.59s.67-.66,1.49-.64,5.2-.37,9.76-.88S392,204,393,204c7.27-.11,42,.39,64.95.94,15.26.36,30.94.44,34.85.19,21.25-1.38,29.17-1.42,63.2-.38C582.84,205.58,592.57,206.21,591,207Zm13.69-1.12c-.83.28-1.21,1-.86,1.57s-1.77,1-4.73.85c-5-.18-6.46-1.07-4.54-2.8,1.27-1.13,3-.76,2.16.46-.42.6.37,1.14,1.74,1.19s2.19-.42,1.8-1.06.68-1.06,2.61-.94S605.51,205.62,604.69,205.9ZM295.81,179.64a4.66,4.66,0,0,1-2.95-.11c-.8-.34-.13-.57,1.49-.51S296.63,179.36,295.81,179.64Zm5.67.6a1.23,1.23,0,0,1-1.23-1.18c0-.62.26-1.11.55-1.1s.84.54,1.22,1.17S302.17,180.26,301.48,180.24Zm31.1-2.58c-2.71-.24-4.67,0-4.38.46.8,1.31-8.15.71-10.19-.68-1.24-.84-.21-1,3.55-.43,4,.57,4.57.49,2.37-.34-2.58-1-2.36-1.09,1.8-.91A40.44,40.44,0,0,1,334,177C337.17,178,337.05,178.05,332.58,177.66Zm9.2-1.63a4.31,4.31,0,0,1-3.26.3c-2.47-1-1.83-1.54,1.7-1.38C342.58,175.05,343,175.34,341.78,176Zm16.74-.75h0a17.2,17.2,0,0,1-5.31-.2c-1.46-.32-.26-.49,2.67-.38S360,175.07,358.52,175.28Zm45.16.88c-3.25.33-11.21.77-17.67,1l-12.41.39a31.18,31.18,0,0,1-3.61-.37c-4.71-.65,21-2.23,30.76-1.89C409,175.54,409.22,175.6,403.68,176.16Zm12.72-1a4.66,4.66,0,0,1-2.95-.11c-.8-.34-.13-.57,1.49-.51S417.22,174.87,416.4,175.15Zm85.14-3.56a4.8,4.8,0,0,1-3-.11c-.81-.35-.14-.58,1.49-.52S502.36,171.31,501.54,171.59Zm95.78-4.3a4.8,4.8,0,0,1-3-.11c-.8-.34-.13-.57,1.49-.51S598.14,167,597.32,167.29Zm193.95-59.23h0a7.07,7.07,0,0,1-3.55-.09c-1.14-.33-.48-.56,1.47-.51S792.07,107.78,791.27,108.06Zm65.06,7.6-4.74.75h0a45.59,45.59,0,0,1-7.69.6l-2.95-.16,3-.79a32.74,32.74,0,0,1,7.69-.6Zm-3.08,5.44c1.62.06,2.28.34,1.46.63a4.8,4.8,0,0,1-3-.11C851,121.27,851.63,121,853.25,121.1Zm13.32-.07h0a7.07,7.07,0,0,1-3.55-.09c-1.14-.33-.48-.56,1.47-.51S867.37,120.75,866.57,121Zm12.92,27.58a10.1,10.1,0,0,1-4.13-.16c-1.13-.32-.2-.52,2.07-.43S880.63,148.37,879.49,148.61Zm-3.16,21.69c-4.56.27-14.39.24-21.85-.07-12.07-.51-12.66-.62-5.3-1,4.56-.23,14.39-.2,21.85.07C883.34,169.75,883.84,169.85,876.33,170.3ZM892.51,122a4.8,4.8,0,0,1-3-.11c-.81-.34-.14-.58,1.49-.51S893.33,121.74,892.51,122Zm-8.69,56.15c-7.83-.32-10-.66-7.06-1.13,5.53-.9,11.75-.66,15.34.58C894,178.27,891.06,178.47,883.82,178.17Zm102.61-30.09h0a7,7,0,0,1-3.54-.09c-1.15-.33-.49-.56,1.46-.51S987.23,147.8,986.43,148.08Zm29.71,3.81c-5.19-.06-11.31,0-13.58,0s-30.17-.58-62-1.44c-38.23-1-53.44-1.76-44.84-2.1,7.15-.29,22.83-.29,34.84,0s19.46.19,16.55-.22c-3.85-.53-2.06-.78,6.51-.88,6.5-.08,13.27.26,15.05.74s3.24.42,3.25-.16h0c0-.57,1.22-1,2.68-.93,2.15.1,2.31.32.86,1.15-1.26.71.62,1.12,6.24,1.34,5.06.2,7.78-.11,7.33-.83s.69-1.07,2.61-.95c2.92.17,3,.3.93,1.08-1.41.53,3.37.87,11.8.86,7.82,0,15.75.52,17.69,1.2C1025.05,151.81,1024.14,152,1016.14,151.89Zm-99.2,24.58c1.62.06,2.28.34,1.46.63a4.8,4.8,0,0,1-2.95-.11C914.64,176.64,915.31,176.41,916.94,176.47Zm40.13.15h0c-1.66.86-27.75.74-31.86-.14-1-.21,3.82-.48,10.64-.6C956.58,175.51,959.06,175.6,957.07,176.62Zm-2.26-3.41c0,.63-3,1-6.81.74-5.58-.32-6.15-.52-3.22-1.12,5.29-1.08,10.06-.9,10,.38Zm34,1.19c12.91-.56,13.7-.56,13,.08-.37.34-4.86,1.15-10,1.8-7.08.9-9.48.86-10.12-.17S983.11,174.65,988.78,174.4ZM1026,150.47c-1.3-.76,8.68-.81,29.53-.14,20.48.65,29,1.24,24.39,1.66C1069.25,153,1028.28,151.82,1026,150.47Zm4.91,22.3c1.24,0,1.93.29,1.53.65a2.48,2.48,0,0,1-2.26,0C1029.26,173,1029.54,172.78,1030.92,172.77ZM1046.54,103h0a7,7,0,0,1-3.54-.09c-1.15-.33-.49-.56,1.46-.51S1047.34,102.71,1046.54,103Zm72.88,15.19h0a22.45,22.45,0,0,1-5.9-.2c-1.79-.33-.6-.5,2.65-.39S1120.88,118,1119.42,118.18Zm8,27.17c-9.14.11-19,.23-22,.29s-15.68,0-28.34-.1l-23-.2,13-1.76c7.17-1,14.24-2.09,15.71-2.49,2.12-.58,60.34,1.43,67.57,2.34h0C1155.46,144.06,1142,145.19,1127.42,145.35Zm-28,5.28c1.63.07,2.28.35,1.47.63a4.83,4.83,0,0,1-3-.11C1097.16,150.8,1097.83,150.57,1099.45,150.63Zm34.22,1.61c-16.6-.07-12.9-.71,7.12-1.24,14.25-.37,24.55.19,25.76,1.41.31.32-3.9.43-9.36.24S1141.14,152.27,1133.67,152.24Zm-17,21.89c-4-1.56-4-1.59,4.06-1.37,4.5.12,7.88.48,7.53.79C1126.29,175.28,1120.36,175.58,1116.63,174.13Zm-23.34,13,4.15-.67c6.2-1,7.32-1,6.49.24h0c-.41.6-3,1-5.7.76Zm-5.4,25c1.24,0,1.93.3,1.53.65a2.45,2.45,0,0,1-2.26,0C1086.22,212.37,1086.51,212.12,1087.89,212.11Zm-20.33-34c-14.3-.94-31.5-1.44-38.23-1.11-14,.68-27.36-.59-22.5-2.13,1.59-.51,7.4-.46,12.91.1,6.77.69,18.64.47,36.64-.67,26.28-1.68,49.06-1.82,40.17-.25h0c-2.55.45.26.7,7.27.65,6.34,0,11.71.38,12.07,1s-4.52,1.76-10.84,2.6C1095.36,179.6,1089.5,179.57,1067.56,178.14Zm11.57,33.73c1.62.07,2.28.35,1.46.63a4.8,4.8,0,0,1-2.95-.11C1076.84,212,1077.51,211.81,1079.13,211.87Zm-11.24.82c2.6.08,3.79.35,2.66.59h0a13.37,13.37,0,0,1-4.72-.16C1064.36,212.8,1065.29,212.6,1067.89,212.69Zm-6.4-29.77c4.82-.89,18.61.51,20,2h0c.8.86-.81.95-5.32.29-3.57-.52-9.13-1.11-12.38-1.31C1058.83,183.63,1058.47,183.48,1061.49,182.92ZM1048.89,217l4.15-.68c2.28-.37,4.28-.73,4.45-.81s.28.37.27,1h0c0,.62-2,1-4.45.81Zm-97.72,37,17.74-.87c9.75-.48,30.49-.95,46.09-1s32.87-.28,38.4-.39c9.29-.19,41.39-.22,60.84-.05,4.54,0,7.73.26,7.07.49h0c-1.48.53-39.69,2.54-50.85,2.68-4.55,0-10.67.28-13.6.49-8.94.67-30.74.54-69.1-.4ZM993,245.31h0a10.27,10.27,0,0,1-4.13-.15c-1.13-.33-.2-.52,2.07-.44S994.15,245.07,993,245.31Zm-10.85-5.77c.63-.55,4-.9,7.4-.77s6.26-.27,6.28-.93.73-.78,2.28.09c1.24.68,4.82,1.26,8,1.28h0l5.68,0-5.88-1.05c-3.47-.62-.8-.62,6.5,0,12.57,1.06,17.45,2.08,8.35,1.74-2.75-.1-6,.26-7.14.81s-7.14,1.37-13.25,1.83-11.92,1.19-12.91,1.63a9.94,9.94,0,0,1-4.38.53c-1.43-.16-2.38.08-2.1.53s-6.8.57-15.72.27c-14.24-.48-15.77-.71-12.63-1.87,2-.72,9.16-1.73,16-2.23S981.53,240.09,982.16,239.54ZM689.61,185.35h0a2.47,2.47,0,0,1-2.27,0c-.93-.39-.64-.65.73-.65S690,185,689.61,185.35Zm-1.37,21.82h0c-4.88.26-13.65.37-19.5.24s-12.74.23-15.33.81c-3.44.78-4.82.73-5.11-.2-.53-1.64-3.75-1.76-3.78-.15,0,.85-4.61.94-14.78.29-8.11-.52-14.75-.57-14.76-.1s-1.74.74-3.85.61-3.11-.48-2.21-.78c1.37-.47,1.37-.71,0-1.59-1-.67.26-1,3.73-.94,2.92,0,7.9-.05,11.06-.21,3.39-.17,6.4.27,7.36,1.08s1.62,1,1.64.16c0-1.54,6.29-1.63,38.4-.57C688.51,206.4,694.17,206.85,688.24,207.17ZM703.79,186a10.1,10.1,0,0,1-4.13-.16c-1.13-.32-.19-.52,2.08-.44S704.94,185.74,703.79,186Zm69.14-6c-2.76.94-12.83.16-14.07-1.1-.36-.36,3.29-.47,8.1-.25C773.64,178.93,775.06,179.25,772.93,180Zm-5,3.3c1.62.06,2.28.34,1.46.62a4.8,4.8,0,0,1-2.95-.11C765.65,183.45,766.32,183.22,767.94,183.28Zm7.09.09c0,.62-1,1.08-2.1,1-1.76-.08-1.8-.25-.27-1.12C774.92,182,775.06,182,775,183.37ZM789,180.2h0a46.19,46.19,0,0,1-8.26-.32c-2.09-.33-.08-.45,4.46-.27S791.41,180.05,789,180.2Zm-3.31,3.74c1.63.06,2.28.34,1.47.63a4.83,4.83,0,0,1-3-.11C783.35,184.11,784,183.88,785.64,183.94Zm7.78,2.15c-1.24,1.8-72.86,1.21-74.67-.62-.47-.48,2.29-.76,6.14-.63,8,.27,19.71-.38,20.6-1.14.33-.28-2.81-.47-7-.41-5.22.08-7.72-.32-8-1.28s3.19-1.34,13.51-1.21c7.68.1,14.67.34,15.53.55a18.6,18.6,0,0,0,2.65.41h0a1.08,1.08,0,0,1,1.05,1.09c0,.58-3.53.93-7.81.77s-8.1,0-8.48.31c-1.35,1.21,31.87,2.44,42.05,1.56C792.13,185.21,793.86,185.45,793.42,186.09Zm59.78,21.53c13-.92,28.39-.54,87.18,2.12,37.39,1.69,92.63,2.77,93.77,1.83.78-.64,23,.35,22.29,1h0c-.35.31-13.07.62-28.27.69s-31.9.69-37.11,1.38-17.32,1-26.9.73-17.72-.08-18.09.46c-1.09,1.59-4.84,1-6.49-1-1.27-1.54-3-1.78-10.3-1.41-6.27.33-8.53.11-7.93-.75,1.55-2.25-2.88-2.75-8.42-1-4.73,1.53-12,1.67-52.25,1-25.71-.44-48.34-.75-50.29-.7-7.18.2-113.08-4.48-112.53-5s26.34-.41,94.51.67C819.42,208.09,846.8,208.07,853.2,207.62Zm-21.49-37.23h0a2.5,2.5,0,0,1-2.27,0c-.93-.4-.64-.65.73-.66S832.11,170,831.71,170.39Zm-5.27-.14h0a7,7,0,0,1-3.54-.09c-1.14-.33-.48-.55,1.47-.5S827.25,170,826.44,170.25Zm-16.62-51c5.43-1,37.43.31,38.2,1.57.35.56-3.25.88-8,.71s-14.74-.23-22.21-.12C804.72,121.64,801.62,120.8,809.82,119.28Zm-25.73.26c1.24,0,1.93.29,1.53.65a2.45,2.45,0,0,1-2.26,0C782.42,119.8,782.71,119.55,784.09,119.54Zm-6.4-.15c1.62.06,2.28.34,1.46.63a4.8,4.8,0,0,1-2.95-.11C775.4,119.56,776.07,119.33,777.69,119.39Zm-2.81-6.1c-70.68-.53-78.14-.67-73.21-1.32,2.61-.34,10.28-.54,17.05-.44s12.66,0,13.07-.24c1.55-.84,40.56-1.39,67.34-1,15.24.25,28,.24,28.25,0a8,8,0,0,1,3.59-.22c2.8.25,2.82.3.36.66h0c-1.48.21-2.39.87-2,1.46C830.24,113.75,831.52,113.73,774.88,113.29ZM766,114.44c1.63.06,2.28.34,1.47.62a4.83,4.83,0,0,1-3-.11C763.7,114.61,764.37,114.38,766,114.44Zm.48,4.72c4.55.17,6.26.44,3.8.6h0a46.19,46.19,0,0,1-8.26-.32C759.92,119.11,761.93,119,766.47,119.16Zm-13.57-.61c2.28.08,3.2.35,2.06.59a10.09,10.09,0,0,1-4.13-.16C749.7,118.66,750.63,118.46,752.9,118.55ZM495.59,115c1.1-1.11,3.75-1.65,7.53-1.54,3.5.11,5.39.57,4.7,1.15s-4,1.22-7.53,1.53C494.53,116.65,494.07,116.53,495.59,115Zm-13.7-.12c7.25-1,10.06-.86,10,.37,0,.65-3.16.94-7.4.69C477.72,115.53,477.51,115.45,481.89,114.87Zm-16.53-.34c2.59.08,3.79.35,2.66.59h0a13.43,13.43,0,0,1-4.73-.16C461.83,114.64,462.76,114.44,465.36,114.53ZM315.53,17a10.27,10.27,0,0,1-4.13-.15c-1.13-.33-.19-.53,2.08-.44S316.68,16.71,315.53,17Zm1.3,95.78a2.45,2.45,0,0,1-2.26,0c-.94-.39-.65-.65.72-.65S317.23,112.37,316.83,112.73Zm11-.27c-4.27,1.14-6.18,1.06-5.31-.2.41-.6,2.45-1,4.52-.84C330.59,111.66,330.62,111.7,327.79,112.46ZM687,104.59c26.24,1,47.87,1.58,48.06,1.41s9,0,19.58.42l19.22.74-12.42.92h0c-22.73,1.69-70.48,3.22-101.67,3.25-12,0-19.47.27-16.55.57l5.3.54-5.33.67c-3,.37.47.61,8.26.55,7.47-.06,27.66.32,44.87.85s38.45.93,47.23.88c13-.08,14.81.09,9.72.88-3.42.54-6.24,1.54-6.27,2.23s-.51.5-1.08-.41c-.77-1.23-1.45-1.35-2.63-.48-1,.75-13.77,1-35.84.55-79.54-1.44-92.59-1.62-102.14-1.41-17.29.38-97.35-.85-93.29-1.44a28.25,28.25,0,0,0,5.35-1.38,28.12,28.12,0,0,1,7.11-1.2c2.6-.13-4-.37-14.75-.54s-22.15.06-25.41.52-19.18.85-35.38.87c-19.23,0-29.75.47-30.3,1.27s-1.07.86-1.68-.14-2.68-1.21-6.33-.9c-3,.25-9.21.55-13.76.65s-14.66.51-22.47.88-20.31,1-27.79,1.28-18.12.91-23.65,1.29a113.63,113.63,0,0,1-16.54-.06c-4.44-.53-5.93-.4-4.74.39s.49,1.1-3,.92c-3.71-.19-4.21-.43-2.34-1.12s1.74-.91-1.52-1.1c-2.14-.13-3.62.23-3.29.78.72,1.17-6,2.14-13.17,1.89-2.72-.09-5.28.32-5.7.93s.62,1.15,2.46,1.22c5.5.2,2.13,1.39-5.71,2-4.77.37-8,.14-9-.65-1.12-.9-1.43-.8-1.19.38s-1.43,1.69-6.38,1.93c-5.3.25-6.44,0-5.45-1.05.7-.75,2.93-1.36,5-1.36h3.7l-3.53-1c-2.36-.64-2.93-1.14-1.73-1.53,2.78-.91,22.56-2.24,29.43-2,3.4.12,5.9-.23,5.56-.79-.77-1.27,3.33-2.22,8.83-2.06,3.17.1,3.72-.15,2.38-1.08s-.85-1,1.61-.34c2.27.59,3.74.39,4.54-.64.67-.87,1.38-1,1.65-.37s4.71,1,12,.85c12.38-.31,16.86-1.06,16.9-2.85,0-.7,2.38-.75,6.27-.14a43.42,43.42,0,0,0,12.11-.06c5-.88,31.47-2.23,40.74-2.07,1.62,0,10.68-.82,20.12-1.89,14.58-1.64,25.72-2.39,53.24-3.58,3.48-.15,18.17-.32,46.08-.53,19.52-.14,42.7-.11,62,.07,12.34.12,32,.12,43.71,0S660.74,103.63,687,104.59Z"/><path class="cls-1" d="M554.24,165.7a9.92,9.92,0,0,1-4.13-.15c-1.13-.33-.19-.52,2.08-.44S555.38,165.46,554.24,165.7Z"/><path class="cls-1" d="M747.43,162.84c4.8-.7,6.82-.56,6.8.46,0,1.24-8.25,1.95-9,.77-.28-.46.69-1,2.17-1.23Z"/><path class="cls-1" d="M713.4,166.62c1.94,0,2.88.31,2.07.59a7,7,0,0,1-3.54-.09h0C710.79,166.79,711.45,166.56,713.4,166.62Z"/><path class="cls-1" d="M370.68,173c3.25.12,4.71.38,3.25.6a22.06,22.06,0,0,1-5.9-.21h0C366.24,173.07,367.43,172.9,370.68,173Z"/><path class="cls-1" d="M759,163.6c0,.62-.83,1.1-1.8,1.06s-1.76-.57-1.74-1.19.82-1.1,1.79-1.06S759,163,759,163.6Z"/><path class="cls-1" d="M251.69,171.16a2.48,2.48,0,0,1-2.27,0h0c-.93-.39-.65-.65.73-.65S252.09,170.8,251.69,171.16Z"/><path class="cls-1" d="M534.74,178.85a3.46,3.46,0,0,1-2.75,1c-1.72-.08-1.75-.24-.2-1.12h0C534.13,177.4,535.7,177.46,534.74,178.85Z"/><path class="cls-1" d="M497.56,177.79c3.57.14,5,.4,3.23.6a27.14,27.14,0,0,1-6.49-.25h0C492.52,177.82,494,177.66,497.56,177.79Z"/><path class="cls-1" d="M477.14,178.5a2.47,2.47,0,0,1-2.27,0h0c-.93-.39-.64-.65.73-.65S477.54,178.14,477.14,178.5Z"/><path class="cls-1" d="M272.24,185.92c3,.09,2.06.7-2.3,1.46-2.6.46-3.08.33-1.76-.45A8.78,8.78,0,0,1,272.24,185.92Z"/><path class="cls-1" d="M297.85,167.25a2.47,2.47,0,0,1-2.27,0h0c-.93-.4-.65-.65.73-.66S298.25,166.89,297.85,167.25Z"/><path class="cls-1" d="M273,169.7a2.48,2.48,0,0,1-2.26,0h0c-.94-.4-.65-.66.73-.66S273.38,169.34,273,169.7Z"/><path class="cls-1" d="M532.71,164.49c4.55.18,6.26.44,3.8.6a46.16,46.16,0,0,1-8.26-.33h0C526.16,164.44,528.17,164.32,532.71,164.49Z"/><path class="cls-1" d="M259.41,170.39a4.8,4.8,0,0,1-3-.11c-.81-.35-.14-.58,1.48-.52S260.22,170.1,259.41,170.39Z"/><path class="cls-1" d="M288.38,168a2.47,2.47,0,0,1-2.27,0c-.93-.4-.64-.65.73-.65S288.78,167.67,288.38,168Z"/><path class="cls-1" d="M468.91,165.11c-1.31.48-5.3.72-8.87.52l-6.49-.35,7.1-.49h0C470.89,164.1,471.57,164.12,468.91,165.11Z"/><path class="cls-1" d="M486.92,165.43a10.31,10.31,0,0,1-4.14-.15c-1.12-.33-.19-.53,2.08-.44S488.06,165.19,486.92,165.43Z"/><path class="cls-1" d="M396,164.17a2.45,2.45,0,0,1-2.26,0c-.94-.4-.65-.65.73-.66S396.36,163.81,396,164.17Z"/><path class="cls-1" d="M439.71,162.43a2.45,2.45,0,0,1-2.26,0h0c-.94-.4-.65-.65.72-.65S440.11,162.08,439.71,162.43Z"/><path class="cls-1" d="M574.94,253.55c4.23.86,3.11,1-5.55.56-6-.29-9.95-.84-8.84-1.22C563.2,252,568.41,252.22,574.94,253.55Z"/><path class="cls-1" d="M449,261.31a53.94,53.94,0,0,1,10.05-.49c6.44.24,6.45.25,1.75,1a57.83,57.83,0,0,1-10.05.49C445.9,262.06,445.73,262,449,261.31Z"/><path class="cls-1" d="M1331.62,110.32c-.8-.34-.13-.57,1.49-.51s2.28.34,1.46.62A4.8,4.8,0,0,1,1331.62,110.32Z"/><path class="cls-1" d="M1328.06,110.12a2.5,2.5,0,0,1-2.27,0h0c-.93-.4-.64-.66.73-.66S1328.46,109.76,1328.06,110.12Z"/><path class="cls-1" d="M1325.82,118.38a1.13,1.13,0,0,1-1.2,1.08,1.19,1.19,0,0,1-1.16-1.17,1.14,1.14,0,0,1,1.21-1.08A1.17,1.17,0,0,1,1325.82,118.38Z"/><path class="cls-1" d="M1212.52,267.41c-1,.54-4.72,1.18-8.3,1.42-12.72.84-36.14,2.72-38.48,3.09-4.34.68-35.18,2-62.08,2.66-10.72.26-27.29.68-36.81.93s-26.26,0-37.2-.47l-19.89-.94,25.4.16c52.91.34,92.19-1.35,133.61-5.76,6.84-.73,18.56-1.48,26-1.67C1215.47,266.3,1214.54,266.27,1212.52,267.41Z"/><path class="cls-1" d="M1189,261.18c2.27.08,3.19.35,2,.59a10.27,10.27,0,0,1-4.13-.15h0C1185.82,261.29,1186.75,261.09,1189,261.18Z"/><path class="cls-1" d="M1269.45,205.91l5.28,1.88-8.25-1c-4.54-.54-8.74-1.47-9.34-2.05h0C1255.38,203.05,1263.58,203.81,1269.45,205.91Z"/><path class="cls-1" d="M1238,186.28c1.62.06,2.28.34,1.46.62a4.8,4.8,0,0,1-3-.11C1235.72,186.45,1236.39,186.21,1238,186.28Z"/><path class="cls-1" d="M1255.05,190.53c-1-.4-1.76-.92-1.75-1.16s.81-.41,1.78-.38,1.76.56,1.75,1.16S1256,190.92,1255.05,190.53Z"/><path class="cls-1" d="M1250.24,219.25c0,.62-2.28,1-5,.79l-5-.34,4.15-.67h0c2.29-.37,4.55-.73,5-.79S1250.26,218.63,1250.24,219.25Z"/><path class="cls-1" d="M1278.79,224.49h0c-1.14-.32-.48-.55,1.47-.5s2.88.32,2.07.6A7.26,7.26,0,0,1,1278.79,224.49Z"/><path class="cls-1" d="M1236.63,195.24c1.62.06,2.28.35,1.46.63a4.8,4.8,0,0,1-2.95-.11C1234.33,195.41,1235,195.18,1236.63,195.24Z"/><path class="cls-1" d="M978.24,270.66c-.8-.35-.13-.58,1.49-.52s2.28.35,1.46.63A4.8,4.8,0,0,1,978.24,270.66Z"/><path class="cls-1" d="M541.79,252.49l4.23.25-3.41.85c-1.88.46-9.23.92-16.33,1-22.73.32-47.21.94-63.62,1.6-8.78.36-18.61.39-21.86.07-7.28-.71,50.11-2.74,83.28-2.94,6.79-.05,12.6-.31,12.91-.59h0C537.31,252.46,539.47,252.35,541.79,252.49Z"/><path class="cls-1" d="M357.41,261.43c1.62.06,2.28.34,1.46.62a4.8,4.8,0,0,1-2.95-.11C355.11,261.6,355.78,261.37,357.41,261.43Z"/><path class="cls-1" d="M348.91,261.7h0c-.93-.39-.65-.65.73-.65s1.93.29,1.53.65A2.45,2.45,0,0,1,348.91,261.7Z"/><path class="cls-1" d="M410.83,257.15c.42-.42,5.22-.88,10.65-1s10.11-.45,10.39-.68c.69-.56,1.78.65,1.11,1.25C432.08,257.51,410,258,410.83,257.15Z"/><path class="cls-1" d="M372.47,260.24a2.48,2.48,0,0,1-2.26,0h0c-.94-.4-.65-.66.72-.66S372.87,259.88,372.47,260.24Z"/></svg>