<svg id="Layer_1" data-name="Layer 1" xmlns="http://www.w3.org/2000/svg" viewBox="0 0 1920 346.01"><defs><style>.cls-1{opacity:0.5;}.cls-2{fill:#e2e1e5;}</style></defs><title>blue-left</title><g class="cls-1"><path class="cls-2" d="M1417.1,98.93c1.07.95,3.79,1,6.08.22,2.52-.91,1.77-1.6-1.92-1.73C1417.92,97.29,1416.06,98,1417.1,98.93Z"/><path class="cls-2" d="M1762.52,80.2c4.07-3.71.93-7.45-3.94-4.71h0a3.39,3.39,0,0,0-1.45,4.85C1758.47,82.31,1760.25,82.26,1762.52,80.2Z"/><path class="cls-2" d="M1779.22,117.36c10.76,0,17.28,2,25.43,7.6,6,4.19,10.26,8.24,9.41,9s-.14,3.85,1.61,6.81c3.44,5.89,15.52,7.2,20.89,2.31,2.4-2.18,7.71-1.23,18.22,3.27,12.25,5.23,18,6,32.85,4.4,20.43-2.17,27.1-6,19.5-11.27-7.12-4.9-10-13.62-5.94-18,2.82-3.09,1.31-3.5-7.87-2.14-7.42,1.09-11.35.55-11.35-1.59,0-1.79-2.84-3.25-6.33-3.25s-6.33-1.92-6.33-4.32a4.09,4.09,0,0,1,3.77-4.34c2.07,0,1-1.93-2.37-4.32-5.9-4.13-5.9-4.46-.43-7.43,4.22-2.3,4.82-4.09,2.33-6.83-1.85-2-3-6.79-2.55-10.57.75-6.15-.56-7-12.63-7.74-8-.53-13.47.34-13.47,2.15a3.11,3.11,0,0,0,3.17,3c1.74,0,3.17,1.95,3.17,4.34,0,2.89-3.21,4.32-9.81,4.32-7.14,0-10.25,1.56-11.45,5.75-1.34,4.64-4.32,5.77-15.21,5.77-8.48,0-14.16,1.47-15.2,3.91-.89,2.15-6.89,4.67-13.28,5.62s-13.67,3.24-16.13,5.1C1761.39,114.84,1764.36,117.36,1779.22,117.36Z"/><path class="cls-2" d="M1552.64,76.52a14.7,14.7,0,0,1,6.79,4.44c1.21,1.7,3,2.39,3.94,1.52,3.5-3.19-6.68-12.15-11-9.7C1548.78,74.77,1548.84,75.41,1552.64,76.52Z"/><path class="cls-2" d="M1692.68,83a11,11,0,0,0,11.09,0c4.52-2.4,3.5-2.94-5.55-2.94S1688.15,80.61,1692.68,83Z"/><path class="cls-2" d="M1884.08,159.62c-1.15,1-2.11,4.95-2.11,8.65,0,5.55,1.67,6.72,9.52,6.72,6.33,0,9.5-1.45,9.5-4.32,0-2.38-1.58-4.33-3.51-4.33s-2.69-1.93-1.68-4.32C1897.66,157.61,1888.4,155.71,1884.08,159.62Z"/><path class="cls-2" d="M1532.68,200.1c-5.71,2.82-1.08,3.69,17.42,3.3l19.81-.4-17.42-2C1542.9,199.86,1534,199.46,1532.68,200.1Z"/><path class="cls-2" d="M1793.1,176.53c-2.56,1.43-2.14,3.35,1.42,6.61s6,3.66,8.37,1.55C1807.11,180.85,1798.37,173.57,1793.1,176.53Z"/><path class="cls-2" d="M1607.13,86a3.23,3.23,0,0,0,2.38-3.25c0-4.19-15-3.55-16.92.71-.87,2-1.71,3.75-1.84,3.93S1602.69,86.72,1607.13,86Z"/><path class="cls-2" d="M1903.36,274.88a13.21,13.21,0,0,0,7.92,0c2.18-.79.4-1.45-4-1.45S1901.19,274.09,1903.36,274.88Z"/><path class="cls-2" d="M1895.54,177.88c-.72,0-4.06,1.35-7.43,3-6.85,3.34-8.15,14.2-2.34,19.5,4.49,4.08,29.86,4.67,32.52.76C1919.84,198.83,1899.33,177.88,1895.54,177.88Z"/><path class="cls-2" d="M1446.35,333.5c-2.62,0-4.76,1.3-4.76,2.88s2.14,2.88,4.76,2.88,4.74-1.3,4.74-2.88S1449,333.5,1446.35,333.5Z"/><path class="cls-2" d="M1903.36,297.1c-9.15.33-20.19-1-24.55-2.92-16.89-7.49-42-10-71.28-7.23-19.39,1.87-30.5,1.8-34.7-.25-3.52-1.71-23.27-2.8-45.95-2.52-21.86.26-50.44-.95-63.5-2.71-36.76-4.93-60.77-5.88-65.16-2.58-2.78,2.11-4.62,2.08-6.08,0-1.13-1.7-7-2.58-12.94-2s-10.88,0-10.88-1.24-7.49-2.73-16.63-3.2c-14.3-.76-16.78-1.75-17.62-7.13-1.12-7.16-11.35-9.31-44.17-9.28-10.9,0-21.23-.79-23-1.76-7-4-2.19-6.56,15.75-8.4,18.82-1.94,26.25-5.45,17.81-8.39-2.43-.85-7.37-.85-11,0s-15.5.15-26.45-1.58c-17-2.7-44.9-5.45-75.34-7.47-16.73-1.11-25-10.19-9.31-10.19,3.38,0,6.15-1.16,6.15-2.58,0-2.5,11.12-4.6,42-7.89,8.27-.89,15-2.62,15-3.87s6.53-1.58,14.5-.76c11,1.13,17.9-.06,28.65-4.94,7.78-3.52,16.07-5.75,18.41-4.93,5.38,1.88,84.59,2.1,142.79.4,24.39-.72,54-1.38,65.87-1.46s24.65-1.24,28.47-2.52l7-2.33-7.09-2.06a28.72,28.72,0,0,0-13.37-.21c-3.63,1.05-10.27-.32-15.67-3.22-7.54-4-10.9-4.41-17.16-1.82-5.92,2.46-11.78,2.27-24.46-.77-9.19-2.2-17.77-3.39-19.11-2.64s-3.3,0-4.39-1.58-10.56-2.93-21-2.93c-13.2,0-20.59-1.41-24.08-4.59-4.62-4.2-3.57-4.42,12.27-2.62,13.78,1.57,18.16,1,21.47-2.57,5.27-5.8-.57-8.27-17.88-7.62-43.57,1.67-85.77,1.09-91.16-1.25-3.48-1.53-18.08-2.82-32.43-2.87-15.45-.05-25.79-1.25-25.34-2.92s2.87-2.55,5.5-2.18a17.05,17.05,0,0,0,9.5-2.21c7.47-4.51-2.39-8.93-15.18-6.79-7.58,1.25-12.14.3-16.75-3.49-6.39-5.26-17.68-6-58.89-3.86-9.67.5-18.3-.61-21.08-2.7s-8.1-2.8-13.42-1.58c-5.13,1.17-7.94.88-6.86-.71s-4.35-5.68-11.91-9.32c-13.16-6.36-14.21-6.44-24.61-2-18,7.79-62.81,6.22-69.95-2.43-1.87-2.27-3.08-2.14-4.23.42-.88,2-3,3.61-4.8,3.61s-6.8,2.57-11.2,5.72c-5,3.55-10.9,5.2-15.55,4.32-4.16-.76-11.06-2.06-15.35-2.87-8.43-1.59-8.08-10.06.41-10.06,2.51,0,3.68-1.36,2.55-3-1.29-1.91-3.41-2-5.73-.34-2,1.49-9.75,3.61-17.16,4.73s-12.74,3.1-11.83,4.43.2,3.26-1.57,4.25-3.22-.22-3.22-2.68c0-3.56-3.87-4.49-18.53-4.49-10.2,0-23.1,1.45-28.69,3.2S1098.15,120,1097,119c-3.06-2.77,3.51-11.2,11.66-15a37.3,37.3,0,0,0,11.76-9.37c5.49-7.11,18.76-8.62,15.88-1.78-1.4,3.29.6,4.3,8.37,4.27,14.06,0,24.74-3,22.57-6.15-1-1.51,4.84-2.49,13.51-2.26,8.41.22,40-.1,70.06-.73,55.56-1.15,67.25.12,55.2,6q-6.52,3.18-25.77.79c-18.86-2.35-23.19-1.07-15.28,4.49,6.86,4.84,93.19.63,92-4.46-1.28-5.29,18.72-7.25,76.75-7.53,47.1-.25,58.75-1.14,66.92-5.17,5.45-2.66,10.44-4.45,11.1-3.93,3.32,2.56,34.46,4,34.46,1.59,0-1.51-2.9-2.75-6.44-2.75s-7.22-1.86-8.18-4.15-6-5-11.23-6c-11.23-2.25-93.68-4.63-134.15-3.9-15.68.3-38.5.39-50.69.2s-84.91-.84-161.58-1.45-142.26-1.31-145.75-1.56-24.15.43-45.93,1.5-46.74,1.89-55.45,1.83c-100.21-.6-120.43-.26-125.25,2.08-4.07,2-6.09,1.55-7.42-1.58s-4.84-3.9-13.78-2.64c-6.73.95-19.79-.18-29.84-2.59-12.69-3-21.45-3.54-30.11-1.71-13.34,2.81-30.15,1-41.9-4.41-5.84-2.73-9.94-2.73-18.52-.06-8,2.53-15,2.65-25.74.45-21.79-4.42-41.49-4-45,1-2.49,3.58-3,3.48-3-.65-.05-4.29-4-4.85-32.37-4.63-21.7.18-32.72-.82-33.54-3-1.55-4.26-12.31-4.29-15.2,0C503.57,48,495,48.37,477.2,47c-14.13-1.07-42.08-2.52-62.12-3.24s-44.23-2.27-53.75-3.48L344,38.1l9.09-5.4c8.22-4.86,8.57-5.67,3.52-8.24-3.86-2-7.92-1.7-13.16.85-5.66,2.75-9.38,2.88-14.7.54-12.52-5.52-24.3-6.68-30.76-3-5.37,3.05-7.28,2.6-13.11-3.1-5.68-5.55-8.79-6.34-18.31-4.74-24.7,4.17-62.94,4.26-86.81.2a224.14,224.14,0,0,0-51.51-2.46c-21.49,1.4-28,.85-32.39-2.65-3-2.41-13-5.24-22.19-6.29S54.93,1.16,52.42.28c-3.13-1.1-5.23,1-6.59,6.59C41.79,23.28,41,24.54,35.57,23.3c-3.23-.72-10.68,3.19-18.34,9.68C6,42.44,4.37,45.38,4.77,55.39c.24,6.34,2.94,15.86,6,21.16s4.73,11.62,3.7,14.06a8.57,8.57,0,0,0,1.63,8.26c4,4.35,1,10.85-3.75,8.2-1.72-1-5.18-1-7.71-.15v0c-8.86,3.08-4.47,7.23,8.63,8.11,10.85.71,14.23,2.43,18.79,9.52,7.63,11.92,7.35,13-3.51,13-10.42,0-11,.75-6.37,8.56,2.5,4.27,5.62,5,15.83,3.77,13.13-1.61,18.19,3,6.39,5.79-6.64,1.59-8.81,11.85-3.17,15,4.4,2.48,4,12.26-.59,13.63-2.83.87-2.72,4.57.49,15.38C45.66,214.94,52.33,224,59,224c6.29,0,30.05,11.88,31.73,15.86a51.49,51.49,0,0,1,2.33,10.85c1.55,13.12,17,30.62,27.33,30.85,2.61.06,8.32,1.77,12.67,3.82,17.21,8.07,63.41,14.48,75.13,10.43,5.92-2.06,11.67-1.61,21.16,1.64,7.15,2.44,18.71,4.24,25.69,4,15.18-.54,113.89,5.45,125.15,7.6,15.89,3,30.56,4.68,52.27,5.82,12.2.63,28.59,2.37,36.44,3.85,12.09,2.28,105.54,7.17,125.15,6.54,3.47-.1,34.61-.67,69.18-1.26,47.28-.79,63.48-2,65.41-4.81,2-3,12.18-3.34,48-1.77,25,1.09,59,2.53,75.59,3.17s44.35,2.61,61.77,4.35c46.52,4.64,99.24,6.27,105.17,3.25,3.37-1.73,9.92-1.19,18.7,1.54,11.15,3.46,14.82,3.54,20.86.5,4-2,8.15-3.5,9.13-3.27s7.14-.67,13.72-2c6.84-1.41,20.27-1.29,31.48.28,10.75,1.49,32.38,2.62,48.07,2.52a362.43,362.43,0,0,1,56.18,4.84c25.26,4.59,28,4.63,31.69.46,5-5.73,27.78-3.93,27.78,2.19,0,3,3.68,3.66,15,2.71,62.32-5.23,65.68-5.24,61.25-.41-3.68,4.05-3.16,4.63,4.1,4.63,5.82,0,8.31-1.52,8.31-5.08,0-4.38,3.53-5.14,26.14-5.61,14.38-.31,36.11-.95,48.31-1.45s27.17-.06,33.27,1c9.93,1.71,10.34,2.13,4,4-3.94,1.14-7.14,3.23-7.14,4.62s3.2,2.68,7.14,2.86c96.8,4.08,226.9,4.79,260.58,1.39,12.19-1.23,25.87-2.43,30.39-2.68s10.27-2,12.75-3.87c2.9-2.19,11.2-2.88,23.1-1.95,16,1.27,18.31.84,16.66-3.07-2.17-5.13,8.78-6.62,12.15-1.65,3.06,4.49,14.24,3.38,16.36-1.65,3.13-7.42-4-10.86-23.49-11.28-17.3-.37-38.82-7.89-38.82-13.58q0-7.39,56.73-2.84c21.95,1.77,42.77,3.31,46.24,3.43s11.69.44,18.24.7S1920,305,1920,303.86v-4.7C1920,297.7,1912.5,296.77,1903.36,297.1ZM1421.49,148.65c7.89-6.31,19.1-9.15,21.6-5.47,1.12,1.65,4.81,3,8.19,3,9.85,0,7.11,4.52-4.74,7.83-6,1.67-15.39,2.2-20.89,1.19C1416.09,153.41,1415.91,153.12,1421.49,148.65ZM540.23,62.6a6.92,6.92,0,0,1-4.94,2.88,2.94,2.94,0,0,1-3-2.88c0-1.58,2.22-2.88,4.93-2.88S541.3,61,540.23,62.6ZM589,82.78c-3.31,0-6-1.26-6-2.78,0-3.13,12.44-9.92,14.59-8C600.8,75,594.53,82.78,589,82.78Zm98.42-10c-2.24,2.45-6.94,4.07-10.44,3.61-6.15-.84-10.62-13.84-4.74-13.84a2.77,2.77,0,0,1,2.63,2.88c0,1.59,3.75,2.89,8.31,2.89C690.33,68.37,690.93,69,687.42,72.83ZM708.15,77c-4.16,0-8.41-1.26-9.45-2.8-2.29-3.37,12.42-7.19,17.23-4.48C721.18,72.69,716.55,77,708.15,77Zm38,.06a3.85,3.85,0,0,1-4.94,1.26c-4.39-2.47-3.57-4.21,2-4.21C745.9,74.12,747.22,75.44,746.13,77.07ZM941.64,94.3q-11.48,0-3.53-4.48c1.9-1.06,5-.48,7,1.28C947.67,93.45,946.76,94.3,941.64,94.3Zm113.43,56.3c-4.35,2.21-11.13,4.05-15,4.11s-7.14-1-7.14-2.43c0-4.07,18.39-9.82,24.5-7.67C1062.34,146.37,1062.07,147.06,1055.07,150.6Zm-9.54-46.2c8.17-2.37,15.09,1.16,9.08,4.63a23.86,23.86,0,0,1-9.84,2.52C1037.22,111.61,1037.75,106.64,1045.53,104.4Zm27,42.82c-2.63-.91-4.76-2.17-4.76-2.8s2.13-1.13,4.76-1.13,4.74,1.26,4.74,2.8S1075.1,148.12,1072.5,147.22Zm-14.57-54.55c-21.08-.46-39-1.47-39.87-2.25-2.34-2.14,10.35-7.64,17.61-7.64,3.49,0,7.2-1.26,8.24-2.8,2.44-3.57,20.74-.47,27.24,4.63,2.76,2.16,9.53,3.92,15.06,3.92s10,1.13,10,2.51S1079,93.14,1057.93,92.67Zm224.44,55.21c-1,.92-4.46,1.21-7.65.63-5.51-1-5.51-1.16.2-3.21C1281,143.13,1285.78,144.77,1282.37,147.88Zm26.16,1.18a21.63,21.63,0,0,1-8.72,2.83c-2.17,0-4-1.25-4-2.83s3.93-2.87,8.71-2.84C1311.35,146.25,1312.23,146.88,1308.53,149.06Zm186.92,126.79c-2.61,1.54-7.88,2.81-11.69,2.84s-7.82-1.24-8.91-2.84,3.39-2.85,11.7-2.83C1496.54,273.05,1498.92,273.82,1495.45,275.85Zm25.63-2.61h0c-8.25,3-14.8,2.38-11-1,1.27-1.15,6-2,10.5-1.91l8.17.17Zm209.61,36.23a13.33,13.33,0,0,1-7.91,0c-2.19-.81-.4-1.45,4-1.45S1732.88,308.66,1730.69,309.47Z"/><path class="cls-2" d="M1234.74,97.48c5.23-2.77,5.16-3-.93-3.09-3.64,0-7.64.86-8.91,2C1221.08,99.88,1228.65,100.7,1234.74,97.48Z"/></g></svg>