<svg id="Layer_1" data-name="Layer 1" xmlns="http://www.w3.org/2000/svg" viewBox="0 0 1344.94 296.68"><defs><style>.cls-1{fill:#e7e8e2;}</style></defs><title>green</title><path class="cls-1" d="M1156.85,184.63c.6-.59,6.69-1.82,13.54-2.73s13.72-2.2,15.29-2.87h0c3.58-1.54-28.23.71-34.28,2.43a44,44,0,0,1-8.62,1.34c-4,.16-4.31.36-2.7,1.8C1142.11,186.42,1155,186.44,1156.85,184.63Z"/><path class="cls-1" d="M1138.31,177.6c-2.27.08-3.19.35-2,.59a10.27,10.27,0,0,0,4.13-.15C1141.52,177.71,1140.59,177.51,1138.31,177.6Z"/><path class="cls-1" d="M1069.09,290.06c.93-.4.65-.65-.73-.66s-1.94.29-1.54.65a2.47,2.47,0,0,0,2.27,0Z"/><path class="cls-1" d="M1080.75,254.68c1.12-.33.19-.52-2.08-.44s-3.2.35-2.06.59A10,10,0,0,0,1080.75,254.68Z"/><path class="cls-1" d="M1075.69,264.92a2.47,2.47,0,0,0,2.27,0c.93-.39.64-.65-.73-.65S1075.29,264.56,1075.69,264.92Z"/><path class="cls-1" d="M1072.76,254.22a10.46,10.46,0,0,0-4.65-.95c-3.79.12-2.81.72,2.3,1.42C1073.33,255.09,1074,255,1072.76,254.22Z"/><path class="cls-1" d="M1270.22,112.64c1.34,0,2.42-.6,2.4-1.22s-.79-1.1-1.72-1.06a3.23,3.23,0,0,0-2.41,1.21C1268.11,112.21,1268.88,112.69,1270.22,112.64Z"/><path class="cls-1" d="M1303.76,129.41a1.18,1.18,0,0,0,1.15-1.17,1.15,1.15,0,0,0-1.21-1.08,1.17,1.17,0,0,0-1.15,1.17A1.13,1.13,0,0,0,1303.76,129.41Z"/><path class="cls-1" d="M1287.48,140.73a1.7,1.7,0,0,0-1.81-1.62,1.78,1.78,0,0,0-1.73,1.76,1.7,1.7,0,0,0,1.81,1.62A1.78,1.78,0,0,0,1287.48,140.73Z"/><path class="cls-1" d="M1006.58,214.63c1.13-.33.19-.53-2.08-.44s-3.2.35-2,.59A10.27,10.27,0,0,0,1006.58,214.63Z"/><path class="cls-1" d="M1020.11,215.86c2.39.13,4.08-.16,3.75-.64h0c-.33-.48-3.09-.72-6.13-.53C1011.92,215,1012.79,215.47,1020.11,215.86Z"/><path class="cls-1" d="M720.66,10a7,7,0,0,0,3.54-.09h0c1.14-.33.48-.55-1.46-.5S719.85,9.73,720.66,10Z"/><path class="cls-1" d="M745.47,9.11c1.13-.32.19-.52-2.08-.43s-3.19.35-2,.59A10.1,10.1,0,0,0,745.47,9.11Z"/><path class="cls-1" d="M753.73,8.77a4.73,4.73,0,0,0,2.95-.11c.8-.34.14-.57-1.49-.51S752.91,8.49,753.73,8.77Z"/><path class="cls-1" d="M517,114.55a2.47,2.47,0,0,0,2.27,0c.93-.39.65-.65-.73-.65S516.6,114.19,517,114.55Z"/><path class="cls-1" d="M671.47,116.22c-2.27.08-3.2.35-2.05.59a10.27,10.27,0,0,0,4.13-.15C674.68,116.33,673.74,116.13,671.47,116.22Z"/><path class="cls-1" d="M386.12,151.12c1.13-.32.19-.52-2.08-.43s-3.2.35-2.06.59A10.14,10.14,0,0,0,386.12,151.12Z"/><path class="cls-1" d="M1080.07,123.94c1.13-.33.2-.53-2.07-.44s-3.2.35-2.06.59A10.27,10.27,0,0,0,1080.07,123.94Z"/><path class="cls-1" d="M763.81,9.45a2.5,2.5,0,0,0,2.27,0c.93-.4.64-.66-.73-.66S763.41,9.09,763.81,9.45Z"/><path class="cls-1" d="M868.88,0c-1.41-1.29-2.86-.88-2.82.8s7.77,2.77,15.87,2.23c3.94-.27,3.26-.51-3.66-1.28C873.6,1.27,869.37.48,868.88,0Z"/><path class="cls-1" d="M799.22,9.39a52.5,52.5,0,0,0,8.86-.33c2.42-.33.43-.46-4.44-.27S796.78,9.24,799.22,9.39Z"/><path class="cls-1" d="M1082.19-.93h0c-1.63-.43-3.1-.83-3.27-.89s-.28.41-.27,1,1.49,1,3.27.89l3.25-.24Z"/><path class="cls-1" d="M1114.8,16.73c.72-.26-5.07-1.78-12.86-3.37-15.84-3.24-18.13-3.54-16.45-2.14C1087,12.45,1113.06,17.35,1114.8,16.73Z"/><path class="cls-1" d="M1121,18c-.64,0,.17.71,1.81,1.54A13.2,13.2,0,0,0,1127,21c.65,0-.16-.71-1.81-1.54A13.12,13.12,0,0,0,1121,18Z"/><path class="cls-1" d="M1064.67,7.66c-1.57.06-1.57.18,0,1.09a8.13,8.13,0,0,0,3.57,1c1.57-.06,1.57-.18,0-1.09A7.87,7.87,0,0,0,1064.67,7.66Z"/><path class="cls-1" d="M893.85,1.92l7.1.59c8.37.69,30.62,1.12,27.18.52-1.3-.22-6.63-.67-11.84-1h0c-5.2-.32-12.38-.48-15.95-.35Z"/><path class="cls-1" d="M906.08,110.14a7.07,7.07,0,0,0,3.55-.09h0c1.14-.33.48-.56-1.47-.51S905.28,109.86,906.08,110.14Z"/><path class="cls-1" d="M181.29,210.67h0c.94-.4.65-.65-.73-.66s-1.93.29-1.53.65A2.45,2.45,0,0,0,181.29,210.67Z"/><path class="cls-1" d="M214,245.51h0c.93-.39.64-.65-.73-.65s-1.94.29-1.54.65A2.47,2.47,0,0,0,214,245.51Z"/><path class="cls-1" d="M148.59,236.19c-2.27.08-3.2.35-2.06.59a10.14,10.14,0,0,0,4.14-.16h0C151.79,236.3,150.86,236.1,148.59,236.19Z"/><path class="cls-1" d="M190.83,211.41c.81-.34.14-.57-1.48-.51s-2.29.34-1.47.62A4.66,4.66,0,0,0,190.83,211.41Z"/><path class="cls-1" d="M141.77,238.08h0c.93-.4.64-.65-.73-.65s-1.94.29-1.54.65A2.5,2.5,0,0,0,141.77,238.08Z"/><path class="cls-1" d="M77.79,64.38c2.86-2.22.95-2.12-2.88.14-1.69,1-2.17,1.7-1.15,1.66a8.89,8.89,0,0,0,4-1.8Z"/><path class="cls-1" d="M109.88,82.64c3.4-.36.61-.44-6.21-.18s-9.6.55-6.18.65A111.48,111.48,0,0,0,109.88,82.64Z"/><path class="cls-1" d="M570.31,249.1a71.59,71.59,0,0,0,10-.38c2.75-.34.49-.45-5-.24S567.54,249,570.31,249.1Z"/><path class="cls-1" d="M100.57,37.91c-2.51,1-1.59,1.47,2.39,1.24,3.13-.18,3.4-.37,1.46-1h0A6.68,6.68,0,0,0,100.57,37.91Z"/><path class="cls-1" d="M42.41,114.78c-.42-.6-2-1-3.64-1s-2.87.62-2.85,1.24,1.65,1.06,3.63,1S42.85,115.42,42.41,114.78Z"/><path class="cls-1" d="M163.85,181.24c-1.65.06-2.47,2.12-1.13,2.85,1.59.87,3.78-.55,2.87-1.87h0A2.33,2.33,0,0,0,163.85,181.24Z"/><path class="cls-1" d="M1076,242.24a2.44,2.44,0,0,0-1.14,1.8,1.1,1.1,0,0,0,1.2,1c.65,0,1.16-.84,1.14-1.8S1076.67,241.83,1076,242.24Z"/><path class="cls-1" d="M664.41,232a4.66,4.66,0,0,0,3-.11c.8-.34.13-.57-1.49-.51S663.59,231.67,664.41,232Z"/><path class="cls-1" d="M616.9,182.28c.78,1.13,18.92.2,20.13-1h0c.41-.43-4.1-.6-10-.38C620.63,181.09,616.49,181.67,616.9,182.28Z"/><path class="cls-1" d="M638.73,181.48c0,1.1,6.45,2,6.83,1,.16-.45,3.45-.82,7.31-.83a43.4,43.4,0,0,0,10.3-1.12c2.21-.74-1.21-.89-10.6-.48C645,180.37,638.72,181,638.73,181.48Z"/><path class="cls-1" d="M580.59,234a4.73,4.73,0,0,0,2.95-.12c.8-.34.13-.57-1.49-.51S579.77,233.69,580.59,234Z"/><path class="cls-1" d="M694.87,245.4a2.45,2.45,0,0,0,2.26,0h0c.94-.39.65-.65-.73-.65S694.47,245,694.87,245.4Z"/><path class="cls-1" d="M539.25,234.47a39.34,39.34,0,0,0,7.67-.29c2.11-.33.38-.47-3.84-.31S537.14,234.3,539.25,234.47Z"/><path class="cls-1" d="M586.46,233.75a7.07,7.07,0,0,0,3.55-.09h0c1.14-.33.48-.56-1.47-.51S585.66,233.47,586.46,233.75Z"/><path class="cls-1" d="M591,248.17a2.47,2.47,0,0,0,2.27,0h0c.93-.4.64-.65-.73-.66S590.58,247.82,591,248.17Z"/><path class="cls-1" d="M68.36,31.59c-2.23,1.45,1.51.79,16.35-2.89a311.63,311.63,0,0,1,61.72-9.13c6.45-.31,12.14-.84,12.66-1.17.88-.56,19.82.32,29.66,1.38,3.88.42,4.34.23,3.61-1.46s-.32-1.86,2.67-1.4c1.93.29,9.6.6,17,.69s17.52.28,22.39.43,8.4-.11,7.87-.59a4.12,4.12,0,0,0-2.35-.87c-.77,0-6.19-.2-12-.44s-14.61-.53-19.45-.67-9.06-.47-9.37-.75c-1-.91-51.27,1.44-66,3.09-16.17,1.81-24.41,2.89-31.41,4.1C94.92,23.09,70.58,30.16,68.36,31.59Z"/><path class="cls-1" d="M390.32,2.18h0c1.46-.32.54-.52-2.06-.44s-3.79.36-2.66.59A13.59,13.59,0,0,0,390.32,2.18Z"/><path class="cls-1" d="M368.18,1.93l7.08-.38L367,1.13h0C362.43.9,356.84.76,354.57.81c-3.63.09-3.49.18,1.2.8A82.1,82.1,0,0,0,368.18,1.93Z"/><path class="cls-1" d="M256.92,8.29c.93-.39.65-.65-.73-.65s-1.93.29-1.53.65A2.45,2.45,0,0,0,256.92,8.29Z"/><path class="cls-1" d="M1028.67,288.58c9.4.92,30.73.74,30.71-.26,0-.47-6.27-.78-13.9-.69h0C1020.78,287.93,1021.55,287.88,1028.67,288.58Z"/><path class="cls-1" d="M336.59,1c4.74.27,9.24.1,10-.39S344-.33,339.16-.36c-21.4-.15-33,.51-48.1,2.75C282.19,3.71,274.77,5,274.57,5.15s6.18.09,14.17-.24c8.8-.36,12.43-.79,9.2-1.09l-5.33-.49,7.53-1.11C309.41.85,325.13.32,336.59,1Z"/><path class="cls-1" d="M455.25,3.1h0c.94-.4.65-.65-.72-.66s-1.94.29-1.54.65A2.48,2.48,0,0,0,455.25,3.1Z"/><path class="cls-1" d="M431.11,2.88c1.13-.32.19-.52-2.08-.43s-3.2.35-2,.59A10.1,10.1,0,0,0,431.11,2.88Z"/><path class="cls-1" d="M266.7,6.35c-3.25.11-4.71.38-3.26.59a22.53,22.53,0,0,0,5.91-.2h0C271.13,6.41,269.94,6.24,266.7,6.35Z"/><path class="cls-1" d="M481.32,3.22c.8-.34.13-.57-1.49-.51s-2.28.34-1.46.62A4.8,4.8,0,0,0,481.32,3.22Z"/><path class="cls-1" d="M765.43,180.75a2.45,2.45,0,0,0,2.26,0c.93-.39.65-.65-.73-.65S765,180.39,765.43,180.75Z"/><path class="cls-1" d="M514.42,4.3c2.1-.33.37-.47-3.85-.31s-5.94.43-3.82.6A39.37,39.37,0,0,0,514.42,4.3Z"/><path class="cls-1" d="M499.62,3.7h0c1.14-.33.48-.56-1.47-.51s-2.88.32-2.07.6A7,7,0,0,0,499.62,3.7Z"/><path class="cls-1" d="M848.48,108.4c10.07-.09,15.64-.4,12.39-.7-6.32-.57-32-.18-31.2.47C830,108.38,838.41,108.49,848.48,108.4Z"/><path class="cls-1" d="M1111.45,126a2.45,2.45,0,0,0,2.26,0c.94-.4.65-.65-.73-.66S1111.05,125.68,1111.45,126Z"/><path class="cls-1" d="M1115.06,122.77c-.61-.88-6.39-1.11-6.37-.25,0,.24,1.58.6,3.5.79S1115.4,123.26,1115.06,122.77Z"/><path class="cls-1" d="M1165.48,126.72a1.15,1.15,0,0,0,1.21,1.08,1.17,1.17,0,0,0,1.15-1.17,1.12,1.12,0,0,0-1.2-1.08A1.18,1.18,0,0,0,1165.48,126.72Z"/><path class="cls-1" d="M1259.13,77.13c-.16-.08-.29.37-.27,1s2,1,4.45.81l4.42-.32-4.15-.67h0C1261.3,77.57,1259.29,77.2,1259.13,77.13Z"/><path class="cls-1" d="M1212.08,135.79a2.5,2.5,0,0,0,2.27,0c.93-.4.65-.65-.73-.66S1211.68,135.43,1212.08,135.79Z"/><path class="cls-1" d="M1108.32,183c-3.14.12-5.33.56-4.86,1,.89.79,9.13.26,10-.66C1113.78,183,1111.45,182.85,1108.32,183Z"/><path class="cls-1" d="M1109.43,191.5a2.48,2.48,0,0,0,2.26,0c.93-.4.65-.65-.73-.66S1109,191.14,1109.43,191.5Z"/><path class="cls-1" d="M783.72,181.26a4.73,4.73,0,0,0,2.95-.12c.81-.34.14-.57-1.49-.51S782.9,181,783.72,181.26Z"/><path class="cls-1" d="M1129.38,186.24a2.47,2.47,0,0,0,2.27,0h0c.93-.4.65-.65-.73-.66S1129,185.88,1129.38,186.24Z"/><path class="cls-1" d="M1120.77,184.94c-1.63.06-2.29.34-1.47.62a4.8,4.8,0,0,0,3-.11C1123.06,185.11,1122.39,184.88,1120.77,184.94Z"/><path class="cls-1" d="M716.5,112.78c.93-.39.65-.65-.73-.65s-1.94.29-1.53.65A2.45,2.45,0,0,0,716.5,112.78Z"/><path class="cls-1" d="M801.22,113.84c.28-.28-1.13-.46-3.15-.38s-4,.67-4.39,1.32C793,115.92,800,115.05,801.22,113.84Z"/><path class="cls-1" d="M791.47,108.81a7,7,0,0,0,3.54-.09h0c1.14-.33.48-.56-1.47-.51S790.66,108.53,791.47,108.81Z"/><path class="cls-1" d="M809.92,113.76c.8-.34.13-.57-1.49-.51s-2.28.34-1.46.62A4.8,4.8,0,0,0,809.92,113.76Z"/><path class="cls-1" d="M873.37,108.35c1,.53,8.21,1,16,1l14.09,0L891,108.79c-6.83-.32-13.21-.75-14.19-1h0a21.58,21.58,0,0,0-3.56-.41C871.76,107.39,871.77,107.53,873.37,108.35Z"/><path class="cls-1" d="M761.53,115.79c-.52-.47-7-.78-14.5-.7s-16,.19-18.88.24l-5.31.09,5.92.67C737.12,117,762.66,116.8,761.53,115.79Z"/><path class="cls-1" d="M775.72,116.22c1.45-.32.25-.5-2.67-.39s-4.11.38-2.64.59A17.87,17.87,0,0,0,775.72,116.22Z"/><path class="cls-1" d="M1099.56,173.84a2.48,2.48,0,0,0,2.27,0c.93-.39.65-.65-.73-.65S1099.16,173.48,1099.56,173.84Z"/><path class="cls-1" d="M789.66,116a1.15,1.15,0,0,0,1.09-1.17c0-.62-.86-1.09-1.87-1.06s-1.5.57-1.08,1.17A2.48,2.48,0,0,0,789.66,116Z"/><path class="cls-1" d="M783.85,113.64h0c.93-.4.65-.66-.73-.66s-1.93.29-1.53.65A2.48,2.48,0,0,0,783.85,113.64Z"/><path class="cls-1" d="M664.87,10.24a2.54,2.54,0,0,0-1.93-1.06c-.65,0-.9.46-.55,1,1.34,1.95-28.64,1.45-67.24-1.13-7.81-.52-25.62-.66-39.58-.31C503.67,10,500.19,10,456.92,8c-7.81-.36-16.59-.7-19.51-.75h0c-2.93,0-11.16.28-18.29.74S378.8,10,345.37,11.55c-51.76,2.36-100.85,5.64-87.38,5.86,6.91.11,3.42,1.16-11.74,3.55a165,165,0,0,1-29.37,2.12c-8.12-.09-20.35-.11-27.17,0s-20.91.09-31.3,0c-18.61-.1-22.46.28-54.81,5.34C84.75,31.36,71.87,35.54,72,38.67c0,2.18,3.64,2.06,11-.36a43.27,43.27,0,0,1,9.41-2c2.07-.08,8.8-1,15-2.16,9.87-1.77,10.48-2,5.27-2l-5.91,0,8.43-1.78c18.52-3.92,62.85-6.83,61.13-4-.41.68-8.09,1.48-18.63,2-18.1.8-42.14,3.1-35.58,3.41,3.16.15,3,.31-1.74,1.47-2.91.72-5.78,1.79-6.38,2.38a6.43,6.43,0,0,1-3.52,1.17c-1.55.07-1.91.4-1,.91,1.71,1,15.45.36,46.38-2l23-1.78-2.09,2.38c-1.69,1.93-3.84,2.52-11.32,3.13-6.48.52-9.88,1.33-11.38,2.7-1.18,1.07-5.28,2.62-9.11,3.43-4.15.89-7.83,2.43-9.11,3.83s-2.64,2.35-3.23,2.38c-1.13,0-8.65,4.88-11.62,7.46-.93.82-6.22,2-11.75,2.62C94,63.44,88.9,64.52,84.42,67c-3.44,1.87-7.54,2.41-25.91,3.41-19.24,1-38.14,3.55-39.84,5.28-.91.91,3.49.53,10.48-.91C37.75,73,69.27,71,68.5,72.23a3.58,3.58,0,0,1-2.61,1.09,16.09,16.09,0,0,0-5.34,1.89,17,17,0,0,1-4.68,1.88c-2.77.16-6.93,4.44-6.13,6.31.75,1.71,1,1.7,3.76-.16,1.64-1.1,3.27-1.72,3.65-1.39,1.39,1.25-.86,5.35-3,5.43a4,4,0,0,0-3,1.36c-.76,1.25-.17,1.18,12.16-1.31,1.78-.36,4.56-.8,6.18-1s3.3-.88,3.74-1.57,3.59-1.18,7.51-1.1c3.69.07,7.37-.43,8.19-1.12s5.91-1.61,11.32-2,12.22-1.16,15.14-1.61c4.12-.64,4.52-.58,1.77.27-2,.63-2.61,1.11-1.36,1.14,2.43.06,6.24,3,5.21,4.08-.37.38-4.17,1-8.44,1.31s-8.4,1.11-9.16,1.71-4,1.22-7.29,1.38c-12.6.6-21.78,3.09-21.71,5.88,0,.47-1.18,1-2.64,1.1-4.7.44,11.26,1.8,21,1.79,17.5,0,18,0,15.39,1.2a20.65,20.65,0,0,1-6,1.28c-2,.12-4.39,1.08-5.26,2.13-1.41,1.72-4.43,1.94-30,2.19-21.33.21-29.23.65-31.57,1.77-3.41,1.62-3.59,2-2,4.38.71,1,4.27,1.73,9.78,2,4.77.24,6.81.58,4.54.77-3.11.25-3.68.59-2.33,1.34,1.52.86,1.32,1.5-1.29,4.15-2.82,2.87-3.91,3.18-12.81,3.62-7.14.35-9.87.89-10.24,2s.92,1.39,7,.6c4.13-.54,13.08-1.5,19.88-2.14,13.53-1.27,17-2.22,7-1.87-3.52.12-7.16-.21-8.11-.73-3-1.66,5.75-2.81,15.75-2.08a70.79,70.79,0,0,0,14.66-.39C84.76,116.36,95,116,95,117.19c0,.55-1.16,1.35-2.62,1.77s-4.87,2.59-7.6,4.82l-5,4,13.89-.93c7.65-.51,17.89-1.41,22.78-2,7.7-.91,8.87-1.34,8.82-3.21s-1-2.14-6-2.06a63.12,63.12,0,0,1-9.51-.55l-3.56-.64,4.12-.87c6-1.29,18.74-1.67,23.57-.7,2.3.46,11.1.93,19.55,1s17.49.26,20.09.32,13,.21,23,.31,18.51.33,18.74.51.06.91-.38,1.62c-.55.91-7.38,1.51-22.22,2a662.75,662.75,0,0,0-69,5.94c-15.37,2.31-39.46,7.3-40.63,8.42-.59.56.83.64,3.25.17,6.08-1.17,5.38,0-1.43,2.47-3.17,1.13-6.39,2.82-7.14,3.74-1.78,2.17,0,2.08,4.41-.22A32.17,32.17,0,0,1,102,140.71c5.81,1.33,6.16,3.16.63,3.37-4.06.15-4.36,1.53-1,4.55a9.47,9.47,0,0,1,2.42,2.78c0,.35-4.1.63-9.14.64-16.88,0-40.41,1.69-40.39,2.86,0,.61,1.31,1.07,2.88,1s3,.39,3.27,1,3.09.57,8.06-.42c7.61-1.5,33.07-1.81,45.47-.54,5.61.57,5.73.65,2.4,1.6-1.94.55-5.25,1.57-7.37,2.27-3,1-4.49.91-6.76-.41-3.8-2.2-4-2.15-5.3,1.25a6,6,0,0,1-4.63,3.7c-3.86.88-5.23,2.2-4.06,3.9.48.69,1.47.61,2.77-.22,1.48-1,6.09-.93,17.37.08,8.44.76,18.14,1.51,21.55,1.67s6.22.68,6.23,1.15,6.27,1,13.91,1.08,16.8.38,20.36.59,6,0,5.5-.5c-1.07-1-1.66-1.07-6.17-1.11-1.66,0-2.76-.47-2.43-1s3.15-.65,6.27-.25,10.36,1,16.1,1.4c7.67.48,12.5,1.52,18.24,3.92,9.11,3.82,21,6.62,28.6,6.73,1.14,0,1.18.51.19,2.13-2.64,4.28-13.51,5.78-36.36,5-11.38-.39-25.62-.71-31.63-.72s-14.8-.23-19.51-.52c-10.44-.62-28,.93-28,2.47,0,.62-3.53,1.52-7.92,2-9.14,1-8.45,2.18,1.66,2.88,10.65.73,11.83,2.15,2.29,2.75l-8.25.52,9.73.34c5.36.19,10.4.94,11.21,1.66,1.14,1,.71,1.38-2,1.59-1.91.15,1,.76,6.59,1.34s14.86,1.69,20.73,2.45,15.45,1.72,21.31,2.15C191.8,208.91,201,210,198,210.25c-1.42.13-2.85.69-3.19,1.24-.66,1.08,7.27,1.71,26.53,2.08,6.83.14,12.68.49,13,.8.85.77-48.63,1.07-64.37.4-16.78-.73-49.85.5-50.69,1.87-.35.58,1.37,1.65,3.83,2.37l4.47,1.32-5.3.89-5.29.89,6.49,0a66.52,66.52,0,0,1,11.25.92c5.06,1,7.8,1.16,39,1.82,32.46.7,29.7,1.92-6.15,2.72-23,.52-33.33,1.12-33.31,1.94,0,.66,3.09,1.66,6.84,2.23s10.29,1.83,14.54,2.8a124.06,124.06,0,0,0,20.13,2c6.82.13,16.93.55,22.46.93s16.44,1,24.25,1.45,16.06,1.13,18.35,1.59,12.39.82,22.46.79c21.34-.07,32.61.84,37.38,3a33.93,33.93,0,0,0,8.49,2.08c9.79,1,6.2,2.33-6.4,2.33-42.81,0-46.32-.14-47.71-1.64a4.31,4.31,0,0,0-2.73-1.46c-.73,0-.52.53.46,1.09,2.86,1.64-10.19,1.77-20.86.21a60.41,60.41,0,0,0-16.06-.38c-4.13.6-6.77.55-6.79-.12s-6.81-1.48-15.11-2L168.83,243c-5.53-.31-17.75-.23-27.17.18l-17.11.73,14.87.24c8.18.13,17.5.7,20.7,1.26s10.63,1.39,16.49,1.86,11.16,1.31,11.79,1.86c1.5,1.32-1.31,1.36-19.11.25-9.8-.62-17.06-.49-22.44.4a93.76,93.76,0,0,1-10.91,1.28c-8.53-.08-22.65.82-23.74,1.51-2.44,1.56,5.49,4.66,13.18,5.16,5.57.36,7.11.77,5.43,1.47s-1.09.91,2.38.76a52.09,52.09,0,0,1,9.47.66c3.27.6-1.11.93-14.15,1.06-10.39.11-18.59.5-18.2.87s13,.35,28.12,0c20.22-.52,27.67-.35,28.36.66.9,1.31,18.19,3.5,45.76,5.79,7.16.59,24.16,1.23,37.77,1.43s25.08.53,25.48.75,9.21.38,19.56.36,21,.36,23.58.85a45.17,45.17,0,0,0,7.7.78c2.4-.09,2.62-.31,1.15-1.24-1.72-1.08,10.67-1.24,26.88-.33,4.17.24,4.84.09,2.63-.56-5-1.49,167.11-8.42,271.44-10.93,54.65-1.32,114.71-3.24,126.65-4,7.53-.51,3.58-2.48-4.37-2.18-4.06.15-8-.29-8.78-1-.94-.85-8.26-1.15-21.81-.89-11.22.21-23.86.31-28.08.21-22.31-.51-71-.29-102.76.47-63.06,1.5-127.87,2-135.83,1.07-4.23-.5-15.41-1.1-24.83-1.33s-19-.53-21.28-.66,23.74-1.5,57.81-3c153.72-6.9,307.35-10.95,360.66-9.5,13.65.37,32.26.68,41.36.7s19.73.37,23.64.79,11.63.85,17.15,1,14.57.52,20.11.91,13.51.89,17.74,1.11c11.76.6,16.62,1,23.08,2,8.72,1.3,50,2.61,65,2.07,7.14-.27,20.44,0,29.55.57,19.65,1.26,18.33,1.26,18.3-.09-.06-2.6-21.64-4.32-53.25-4.24-17.06,0-45.66-1.29-60.31-2.81-17-1.76-62.94-3.89-94-4.37-12.34-.18-30.16-.54-39.59-.78-15.93-.41-72.34.17-142.31,1.47-35.43.65-171.43,4.57-242,7-37.57,1.28-51.38,1.39-53.15.44-2.3-1.24-2.28-1.3.55-1.58,4.45-.45-7.89-1.62-16-1.52-9.09.11-14.28-1.5-6.54-2,28.06-1.95,65.78-4,89.07-4.76,27.61-.94,35.65-1.26,49-1.92,3.57-.17,8.08-.28,10-.24s14.16-.26,27.15-.67c40.48-1.3,129.12-2.81,131.66-2.24,1,.22,23-.09,49-.69,71.48-1.65,179.56.08,181.49,2.9.57.83,3,.9,7.35.22,3.64-.58,6.79-.58,7.18,0s3,1,5.75.9,15.16.58,27.53,1.42c21,1.43,47.09,2.59,62.08,2.77,3.57,0,12.88.39,20.69.77,23.5,1.15,29.19,1.37,37.83,1.49,4.55.06,10.14.37,12.42.69l4.15.58-3-1.72c-1.65-1-2.06-1.49-.92-1.2s2.07.1,2.06-.42-3-1.08-6.52-1.22c-7.18-.3-8.32-.81-7.38-3.33.49-1.3,2.77-1.78,9.75-2,5-.19,10,0,11,.46s6.93.28,13.08-.37,9.2-1.18,6.77-1.19c-3.58,0-4.44-.45-4.49-2.27,0-1.64-.83-2.22-2.93-2.14-1.58,0-3.22-.39-3.64-1s-1.91-1.05-3.34-1a70.12,70.12,0,0,1-10.89-1.77c-11.44-2.58-32.8-6.17-49.81-8.37-21.25-2.75-24.17-3.48-13.07-3.27,9.82.2,21.37,1,35.38,2.45,4.5.47,13.81.86,20.69.88a403,403,0,0,1,41.83,2.32c8.25.93,10.07.48,15.29-3.81,1.5-1.22,1.85-2.57,1.27-4.83-.78-3.07-.67-3.15,4.31-3.35,3.73-.15,4.63-.49,3.31-1.24-1-.56-4.49-.92-7.79-.81s-6.37-.13-6.83-.54c-1.55-1.39-9.7-3.33-13.47-3.21-2.07.07-4.07-.32-4.44-.86s-5.6-1.15-11.62-1.36-13.07-.47-15.67-.59c-7.94-.37-24.55-2-30.19-2.94a216.18,216.18,0,0,0-23.1-2.78c-3.25-.18-11.51-.67-18.34-1.09-11-.68-46.14-1.24-74.44-1.19-5.53,0-15.9-.32-23.06-.74s-23.64-.68-36.63-.59-23.94-.27-24.33-.8c-.76-1-7.86-1.22-41.27-1-15.22.09-21.31.46-20.06,1.22s.3,1.13-4.1,1.21c-5.14.09-5.45,0-2.39-.89s2.7-1-2.38-.82c-4.3.12-5.25.4-3.52,1,2.33.86,2.32.89-.12,1.06a5.66,5.66,0,0,1-4-1.47,6.47,6.47,0,0,0-4.61-1.4l-3.1.23,3,.79c2.27.6,1.37.88-3.81,1.16-3.73.2-6.79-.11-6.81-.7s-3-.75-6.8-.33c-4.63.5-6.22.37-5-.42s-1.23-1-7.69-.64c-8.7.47-9,.56-3.52,1.07l5.92.55-6.85.43c-4.79.3-6.62,0-6.07-.85s-.7-1.1-4.08-.67c-2.67.35-4.87.36-4.88,0,0-1-18.18,0-19.77,1.07s-23.87,1.62-23.9.56c0-.38,5.17-.79,11.5-.91l11.51-.21-9.85-.36c-7.4-.27-10.24-.83-11.4-2.27-2-2.4-3.25-2.44-2.22-.08.7,1.63-1.93,1.81-29.23,2.06-16.5.15-33.88.39-38.63.54-7.65.23-8.58,0-8.13-1.74s-.69-2-10.9-2c-6.27,0,8.26-.69,32.27-1.61s40.89-1.37,37.49-1-6.18,1.1-6.17,1.66,3.51.56,8,0c11.17-1.43,51.2-2.94,76.42-2.88,11.69,0,29.23,0,39,.06s19.58.08,21.86.18,12.84.22,23.47.27c11.67.05,18.71.5,17.75,1.13-1.19.77-1,1,.91,1a60,60,0,0,1,6.51.36c3.11.34,3.47.22,1.61-.54s-1.41-1,2.71-1.25c2.8-.15,6.26.27,7.68.94s7.24,1,13,.78,10.66,0,11,.56,3.24.57,6.38,0a55.86,55.86,0,0,1,13.2,0c9.3,1.16,47.06,3.33,78.46,4.52,13,.5,29.88,1.18,37.49,1.54s15.72.23,18-.27,4.17-.47,4.19.06,5.38.61,11.94.16c10.27-.69,12-1.09,12.44-2.83s1.22-1.93,5.45-1.31c4.91.73,16.64.61,14.37-.14-1.61-.53-38.08-3.3-49.11-3.73-4.88-.19-10.6-.54-12.72-.77s-3.83.08-3.82.69,1.49,1.26,3.28,1.45.34.47-3.23.63-5.57,0-4.44-.31c2.18-.63,2.68-2.19,1-3.1-.55-.31-10.8-1-22.77-1.48s-22.69-1.09-23.83-1.29-2.06.29-2,1.23-.85,1.46-2.63,1.18c-1.47-.24-9.19-.8-17.16-1.24s-14.5-1.31-14.51-1.92-3.2-.75-8.57-.12c-4.7.55-7.85.57-7,0s-4.11-1.09-11.61-1.24c-7.23-.15-13.72.1-14.42.54s-1,.28-.5-.45-1-1.38-4.29-1.59c-2.78-.18,6.11-.5,19.75-.72s26.39-.28,28.34-.15,14.72.65,28.38,1.14,31.48,1.39,39.62,2,23.31,1.55,33.71,2.1,24.52,1.57,31.36,2.27,13.47,1.22,14.74,1.17a6.81,6.81,0,0,1,3.68.93c.76.56,4,1.16,7.18,1.33s4.85.07,3.71-.22-2.09-1.06-2.11-1.72-1.43-.86-3.61-.36-3.32.39-2.89-.31-.4-1.16-1.74-1.19c-11.29-.23-23.64-1.58-23.06-2.53.33-.55-.62-.95-2.12-.89-2.55.09-22.93-.88-33.48-1.6-2.6-.18-7.66-.49-11.24-.7s-13.42-.84-21.88-1.42c-32.11-2.18-57.89-2.85-88.11-2.29-35,.65-56,.79-89.71.56-12.68-.08-36.06-.07-52,0-19.42.12-26.22-.13-20.69-.75,7.24-.81,6.38-.91-7.11-.86-8.44,0-16.57.49-18.06,1s-2.46.55-2.17.08-7.8-.6-18-.28-28,.53-39.62.48c-15.7-.07-20.92.23-20.28,1.16s0,1-2.46.17c-2.11-.68-7.58-.62-15,.16-9.81,1-11.53,1-10.73-.37s.65-1.35-1,0a3.79,3.79,0,0,1-4,.72c-2.77-1.16-52.26.7-52.23,2,0,.54-.81.37-1.82-.38-1.4-1-2.53-1-4.68,0-1.57.75-3.1,1-3.4.55s-5.24-.75-11-.68c-7.36.09-10.92-.34-12.2-1.49-1.6-1.43-1.48-1.64,1.1-1.83,10-.72,39.26-1.3,40.2-.79,1.79,1,5.79-.83,5.75-2.6,0-.89.36-1.69.85-1.79s20.26-1.09,44-2.18c37.83-1.76,55.29-2,109.81-1.79,6.83,0,23,0,36-.1s23.94,0,24.32.21c.68.34,26,.66,43.62.55,12.64-.08,44.43.81,59.69,1.68,7.16.41,18.6,1,25.43,1.28,23.43,1,28.59,1.51,27,2.53-.88.58,1.1.73,4.68.36,3.41-.35,6.46-.27,6.76.18s5.49.63,11.51.42,11.75-.11,12.74.23,10,.51,20.09.36,19.33.11,20.58.56c1.52.54,2,.42,1.47-.37-.93-1.35,13.71-1.44,26.38-.17,16.56,1.67,40.9,2.68,42.53,1.77,1-.57,3.17-.31,5.25.63s9,1.72,17.8,1.94c12.53.3,17.19,1,27.34,4,2.38.71,2.38.71,0-1.1-3.24-2.42-10.94-5.25-16.39-6-3.34-.46-4.45-1.16-4.49-2.82,0-1.85.85-2.27,5.55-2.61l5.6-.42-5.84-.21c-3.2-.11-6.41-.91-7.12-1.77s-5.83-2.17-11.37-2.92c-11.32-1.53-24-3.87-28-5.16-1.46-.47-10-.89-19-.93-30.17-.12-57.63-.67-68.36-1.37-20.75-1.35-37.94-2.26-44.55-2.37-3.68-.06-10.86-.48-16-1s-17-1.06-26.42-1.34-19.53-.63-22.46-.8-10.64-.4-17.14-.52c-32.15-.6-50.82-2-34.45-2.65,4.71-.18,6.5-.63,5.91-1.49s.51-1.1,3.75-.79c2.53.25,12.57.4,22.32.33,22.71-.17,47.78.66,73.88,2.45,11.39.78,34.54,1.73,51.44,2.11s36.32,1.2,43.16,1.82,13.23,1.16,14.2,1.2,12.16.91,24.85,1.93l26.63,2.13c2,.15,10,.6,17.93,1s16.17,1.16,18.35,1.67c6.14,1.45,63-1,69.77-3,5.75-1.71,12.5-6.71,12.45-9.2,0-1-.65-.85-2.06.44a31.36,31.36,0,0,1-7.09,4c-5,2.09-5.12,2.09-7.64-.17-2-1.8-2.26-2.61-1.17-3.72,2.15-2.19,1.67-3-2.21-3.65-2-.34-4.13-1.56-4.83-2.73-1-1.72-2.57-2.06-8.29-1.85a54.29,54.29,0,0,1-13.88-1.65c-8.1-2.27-25-3.41-49.4-3.32-9.75,0-19.05,0-20.68-.18l-4.44-.37c-2.2-.18-1.83-2.12.53-2.8,1.29-.38.87-.6-1.13-.61-5.66,0-5-2.19.69-2.41,3-.11,5.38-.64,5.36-1.18s2.22-.64,5-.23c7,1,16,.64,16.81-.74.39-.63,3.74-1.27,7.46-1.4,4.12-.16,7.72-1,9.26-2.06,2-1.47,3.47-1.62,7.63-.79,4.72.94,21.24,3.67,22.07,3.63.2,0,0-.58-.51-1.28-.64-.94.66-1.11,4.94-.67l8.18.81a15.72,15.72,0,0,1,4.75,1.42c2.78,1.39,16.32,4.22,17,3.54.25-.26-1.75-.94-4.45-1.53-4.28-.94-4.69-1.28-3.22-2.77,1.67-1.69,9-2.63,10.47-1.33.42.37,5.43.73,11.14.81s12,.78,14,1.57a10.2,10.2,0,0,0,7.1.37l3.51-1.08-4.32-1.58c-2.38-.87-4.7-2.14-5.16-2.81-1.41-2-8.21-4-16.23-4.64a55.31,55.31,0,0,0-8.76-.27c-2.45.72-19.53-1.74-19.56-2.82,0-2.09,8-8.84,11.57-9.73,1.95-.48,3.54-1.25,3.53-1.7s1-2,2.33-3.38c1.69-1.85,3.72-2.61,7.32-2.74,6.57-.25,20.49,1.89,32.25,5s18.46,2.89,28-.6c11.43-4.17,12.68-6.4,1.53-2.73-6.53,2.15-20.24,3-24.81,1.51-5.68-1.83-3.34-3.28,5.87-3.63,8.54-.32,16.94-2.89,16.89-5.17,0-.5-2.81-.77-6.22-.6-16.77.8-54.84,1.57-56.67,1.15a2.85,2.85,0,0,1-2.13-2.53c-.08-3.38,2.82-4.89,8.39-4.38,7.63.71,34.34.37,33.45-.43-.42-.38-4.63-.84-9.36-1-8.48-.35-15.34-3-14.59-5.6.68-2.36,5.08-2.3,24.38.35,2.8.39,2.76.3-.64-1.58a17.4,17.4,0,0,0-7.14-2,25.88,25.88,0,0,1-7.09-1.16l-3.58-1.19,2.93-1.28c1.61-.71,7.7-1.54,13.54-1.85,7.15-.38,12.53-1.33,16.47-2.91a58.26,58.26,0,0,1,15.29-3c5.19-.36,9.7-.71,10-.78s-1.2-.8-3.39-1.62c-5.64-2.1-4.31-4.36,2.59-4.38,3.07,0,5.37-.22,5.11-.45a81.48,81.48,0,0,0-9.81-2.11c-5.34-.95-9.57-2.33-9.91-3.21s0-1.34,1.07-1c4.76,1.51,7,1.81,7,.91,0-1.53-11.52-4.18-23.86-5.5-6.13-.66-13-1.87-15.32-2.68a51.54,51.54,0,0,0-10.67-2c-3.58-.28-10.25-1.07-14.81-1.76s-16.55-1.75-26.63-2.36-22.33-1.42-27.22-1.81-13.13-.86-18.33-1c-14.25-.45-28.81-1.72-36.1-3.13a120.81,120.81,0,0,0-14.8-1.61,116.15,116.15,0,0,1-13-1.22c-3-.57-5.19-.48-6.07.27-1.26,1.06-23.93-.54-26.38-1.87s-65-6.27-88.27-6.92c-5.85-.17-16.5-.79-23.66-1.38-19.42-1.61-49.09-2.21-96.32-1.95-3.57,0-12.88,0-20.67-.11-11.41-.12-12.33,0-4.72.45,5.21.33,24.89.81,43.73,1.06,36.34.5,58.64,1.24,75.07,2.52,5.53.43,18.57,1.16,29,1.63,27.64,1.24,54.24,3,55,3.7.94.85-29.24.31-34.92-.62-2.66-.43-14.32-1-25.9-1.2s-21.42-.61-21.88-.86-6.35-.29-13.11-.1-17.88.09-24.71-.22S887,14.1,881.13,14s-13.56-.31-17.14-.48c-13.38-.62-32-.76-52.29-.39-11.54.21-21.37.16-21.86-.1s-14.69-.29-31.58-.08c-29.63.39-47.17-.09-60.88-1.66a175.69,175.69,0,0,0-19.13-.36C671.21,11.16,665.3,10.85,664.87,10.24ZM98.28,93.65c-2.15.85-14.19,1.92-19.7,1.75-2.17-.06-2.15-.16.31-1.2h0c1.47-.63,7-1.21,12.2-1.3C96.74,92.8,99.66,93.11,98.28,93.65Zm12.6-6.06c1.62-.06,2.29.17,1.49.51a4.8,4.8,0,0,1-3,.11C108.6,87.93,109.26,87.65,110.88,87.59Zm6.13,35.2-9.2.89c-9.91.95-22.22.61-20.32-.55,2.67-1.64,5.28-1.81,17.1-1.09Zm16.08-20.09c-3.1,1.1-20.84,1.51-25.7.59-3.47-.65-3.26-.75,2.18-1.06,3.31-.19,9.15-.69,13-1.12s8.28-.43,9.92,0C135.22,101.82,135.27,101.93,133.09,102.7Zm7.9.13a2.48,2.48,0,0,1-2.27,0h0c-.4-.36.29-.65,1.54-.65S141.92,102.44,141,102.83Zm8.92-.33a10.08,10.08,0,0,1-4.13.16h0c-1.14-.24-.21-.51,2.06-.59S151,102.18,149.91,102.5Zm26.2-3.84c1.62-.06,2.29.17,1.49.52a4.8,4.8,0,0,1-2.95.11C173.83,99,174.49,98.73,176.11,98.66Zm-6.4.16c1.38,0,1.67.26.73.65a2.45,2.45,0,0,1-2.26,0h0C167.78,99.11,168.47,98.81,169.71,98.82Zm-7.1-.86c1.37,0,1.66.25.73.65a2.47,2.47,0,0,1-2.27,0h0C160.67,98.25,161.36,98,162.61,98Zm9.18,5.8c-7.31.16-13.43-.17-13.6-.74s3.8-1.33,8.83-1.7c5.42-.4,9.15-.23,9.16.43s2,1.24,4.46,1.41S179.1,103.6,171.79,103.76ZM194.5,26c3.57-.14,5,0,3.26.34a27.14,27.14,0,0,1-6.49.25C189.48,26.38,190.93,26.12,194.5,26Zm4.92,74.89c-2.72.17-4.21-.17-3.79-.87.79-1.3,1.14-1.31,5.31-.2C203.58,100.51,203.41,100.63,199.42,100.88ZM115,138.8c-2-.22-4.83-.41-6.4-.43-6.87-.09-.12-1.69,15.43-3.65h0c20.39-2.57,18.81-2.47,20.87-1.32.93.52,3.35.62,5.38.23,2.39-.46,4.19-.16,5.14.87,1.24,1.35,0,1.78-8.85,2.93C135.86,138.84,121.14,139.48,115,138.8Zm27.28,18.1h0c-1.13-.24.06-.51,2.66-.59s3.53.11,2.06.43A13.37,13.37,0,0,1,142.3,156.9Zm7.36,11a4.8,4.8,0,0,1-2.95.11c-.82-.29-.16-.57,1.46-.63S150.46,167.52,149.66,167.87Zm-4.14-17.19c-13.21,1.23-16.8,1.19-15.36-.18h0c1-.94,21.88-2.4,25.85-1.8C159,149.15,156,149.71,145.52,150.68Zm11.84,18a10.1,10.1,0,0,1-4.13.16h0c-1.15-.24-.22-.51,2.05-.59S158.49,168.41,157.36,168.73Zm7.69.81a4.8,4.8,0,0,1-3,.11c-.81-.28-.16-.56,1.47-.62S165.86,169.2,165.05,169.54Zm40.71,23.27a4.73,4.73,0,0,1-2.95.12c-.82-.29-.16-.57,1.46-.63S206.56,192.47,205.76,192.81Zm17.66.49a2.47,2.47,0,0,1-2.27,0c-.4-.36.29-.65,1.54-.65S224.35,192.91,223.42,193.3Zm10.62-.4a2.47,2.47,0,0,1-2.27,0c-.4-.36.29-.65,1.54-.65S235,192.51,234,192.9ZM420,256.24c5.75.27,10.81.84,11.25,1.27,1.18,1.15-20.93.35-23.26-.85h0C405.67,255.49,404.67,255.52,420,256.24ZM883.3,205c1.38,0,1.67.26.73.65a2.45,2.45,0,0,1-2.26,0h0C881.37,205.33,882.06,205,883.3,205Zm-23.58-19.32c1.63-.06,2.3.17,1.49.52a4.8,4.8,0,0,1-3,.11C857.44,186.06,858.1,185.78,859.72,185.72Zm-31.1-1.05c.53.1,5.75.31,11.6.48l10.64.3-10.85.62c-6.2.36-11.16.15-11.59-.48h0C828,185,828.09,184.57,828.62,184.67Zm-7.31.28c2,0,2.61.18,1.47.51a7,7,0,0,1-3.54.09h0C818.43,185.27,819.37,185,821.31,185Zm-10,.42c2.27-.09,3.21.11,2.08.44a10.27,10.27,0,0,1-4.13.15C808.09,185.72,809,185.46,811.28,185.37ZM787,206.62c34-1,41.95-1,63.21.38,3.9.26,19.58.17,34.84-.19,23-.54,57.68-1,65-.93,1,0,5.5.43,10.06.94s9,.9,9.77.88,1.48.26,1.49.63,2.54.64,5.62.59c9.61-.14,26.84.73,28.09,1.41s1.2.74,11.6,1.4c6,.38,8.4,1,9.5,2.61a4.54,4.54,0,0,0,3.24,2c1.56-.07,1.56-.21,0-1.07-4.07-2.27.71-2.31,17.86-.17,24,3,34.35,4.9,33.59,6.15-.9,1.46-23.11.81-26-.76-2.44-1.34-10-3.06-11.51-2.63-1,.27-30.62-.73-35.81-1.21-2-.18-8.74-.49-15.08-.68-8.73-.27-11.53-.74-11.56-1.94s1-1.46,3.81-1.08c6.78.9,14.11.92,13.09,0-1.52-1.3-22.13-2.34-23.39-1.17-.65.6.08,1,1.8,1,2.71,0,2.68.06-.51,1.1a8.57,8.57,0,0,1-5.41.17c-1.1-.52-6-1.08-10.78-1.25s-11.43-.68-14.69-1.15-11.78-.87-18.92-.91-22-.26-33.09-.49c-18.31-.39-26.52-.48-59.08-.65-5.85,0-24.43.16-41.29.43-18.85.3-31,0-31.43-.64s-2.14-.74-3.81-.28a8.34,8.34,0,0,1-5.21-.28h0C750.39,208.07,760.12,207.44,787,206.62Zm-46.88.42c1.93-.13,3,.27,2.61.94s.42,1.11,1.8,1.06,2.16-.59,1.74-1.2c-.84-1.22.9-1.59,2.16-.45,1.92,1.72.48,2.61-4.53,2.8-3,.11-5.1-.27-4.74-.86s0-1.28-.85-1.57S738.27,207.15,740.09,207Zm308.52-26.16c1.63-.06,2.3.17,1.49.52a4.8,4.8,0,0,1-2.95.11C1046.33,181.23,1047,180.94,1048.61,180.88Zm-7.67.11c.39-.63.94-1.16,1.22-1.17s.53.49.55,1.11a1.22,1.22,0,0,1-1.23,1.17C1040.8,182.13,1040.55,181.63,1040.94,181ZM1009,178.88a40.93,40.93,0,0,1,8.23-1.26c4.17-.17,4.38-.07,1.8.91-2.2.83-1.61.92,2.37.35,3.76-.54,4.79-.42,3.55.43-2,1.39-11,2-10.19.67.29-.48-1.67-.69-4.37-.46C1005.92,179.91,1005.79,179.85,1009,178.88Zm-6.25-2.07c3.52-.15,4.17.38,1.69,1.38a4.24,4.24,0,0,1-3.25-.3C1000,177.2,1000.38,176.91,1002.75,176.81Zm-15.66-.25c2.92-.11,4.12.06,2.66.39a17.85,17.85,0,0,1-5.31.2h0C983,176.93,984.17,176.67,987.09,176.56Zm-44.88.55c9.73-.34,35.47,1.25,30.76,1.9-1.62.22-3.24.39-3.6.37s-6-.2-12.42-.39-14.41-.63-17.67-1C933.74,177.46,933.93,177.4,942.21,177.11ZM928,176.39c1.62-.06,2.29.17,1.49.52a4.8,4.8,0,0,1-3,.11C925.74,176.74,926.4,176.46,928,176.39Zm-85.13-3.56c1.62-.06,2.29.17,1.48.51a4.8,4.8,0,0,1-3,.11C840.6,173.17,841.26,172.89,842.89,172.83Zm-95.79-4.3c1.63-.06,2.3.17,1.49.52a4.8,4.8,0,0,1-3,.11C744.82,168.88,745.48,168.59,747.1,168.53ZM553.77,109.32c2,0,2.61.18,1.47.51a7,7,0,0,1-3.54.09h0C550.89,109.64,551.82,109.38,553.77,109.32Zm-62.42,8a32.22,32.22,0,0,1,7.69.59l3,.8-2.94.15a46.55,46.55,0,0,1-7.7-.59h0l-4.74-.76Zm-.15,6.15a4.8,4.8,0,0,1-2.95.11c-.82-.28-.16-.56,1.46-.62S492,123.14,491.2,123.48Zm-12.73-1.18c1.95,0,2.61.18,1.47.51a7.26,7.26,0,0,1-3.54.09h0C475.59,122.62,476.52,122.35,478.47,122.3Zm-12.94,27.58c2.27-.08,3.2.11,2.07.44a10.26,10.26,0,0,1-4.13.15C462.33,150.23,463.26,150,465.53,149.88Zm6.4,21.29c7.46-.26,17.3-.3,21.85-.06,7.36.37,6.78.48-5.29,1-7.47.31-17.3.35-21.85.07C459.13,171.71,459.62,171.62,471.93,171.17Zm-20-47.91c1.62-.06,2.29.17,1.48.51a4.66,4.66,0,0,1-2.95.11C449.64,123.6,450.29,123.32,451.92,123.26Zm-1.06,56.22c3.59-1.24,9.81-1.47,15.34-.57,2.9.47.77.81-7.06,1.13C451.91,180.33,449,180.13,450.86,179.48Zm-92.25-30.13c1.95,0,2.61.17,1.47.5a7.07,7.07,0,0,1-3.55.09h0C355.73,149.66,356.66,149.4,358.61,149.35Zm-37.72,3.28c1.94-.68,9.86-1.22,17.69-1.21,8.42,0,13.21-.33,11.79-.85-2.1-.78-2-.91.93-1.09,1.93-.12,3,.28,2.61,1s2.27,1,7.33.83c5.63-.22,7.5-.62,6.24-1.34-1.45-.83-1.28-1,.86-1.14,1.46-.07,2.67.35,2.68.93h0c0,.58,1.47.65,3.25.16s8.55-.83,15.05-.75c8.57.11,10.36.35,6.52.89-2.92.4,4.53.5,16.54.22s27.69-.28,34.85,0c8.59.35-6.61,1.06-44.84,2.1-31.82.87-59.71,1.52-62,1.45s-8.39-.08-13.58,0C318.83,153.85,317.91,153.67,320.89,152.63Zm106.62,26.22a4.8,4.8,0,0,1-2.95.11c-.82-.28-.16-.56,1.46-.62S428.32,178.51,427.51,178.85Zm-20.4-1.11c6.83.12,11.62.39,10.65.6-4.12.88-30.2,1-31.87.15h0C383.9,177.46,386.38,177.37,407.11,177.74Zm-19-2.67c0-1.28,4.74-1.45,10-.37,2.93.59,2.36.79-3.22,1.11-3.83.22-6.8-.1-6.81-.74ZM361.29,178c-.64,1-3,1.08-10.12.17-5.11-.65-9.59-1.46-10-1.79-.71-.64.08-.65,13-.08C359.85,176.51,361.89,177,361.29,178ZM263,153.85c-4.62-.42,3.91-1,24.39-1.66,20.85-.67,30.83-.62,29.53.15C314.69,153.68,273.72,154.83,263,153.85Zm49.74,21.44a2.45,2.45,0,0,1-2.26,0c-.4-.36.29-.65,1.53-.65S313.71,174.9,312.77,175.29Zm-14.27-71c1.95-.05,2.61.17,1.47.5a7.07,7.07,0,0,1-3.55.09h0C295.62,104.58,296.55,104.31,298.5,104.26Zm-71.7,15.19c3.24-.11,4.43.06,2.65.39a22.14,22.14,0,0,1-5.91.21h0C222.09,119.83,223.55,119.56,226.8,119.45Zm-34.25,25.84h0c7.23-.9,65.46-2.92,67.57-2.34,1.47.41,8.54,1.53,15.71,2.5l13,1.75-23,.2c-12.67.11-25.43.15-28.35.1s-12.8-.18-22-.28C201,147.05,187.5,145.93,192.55,145.29ZM245,153a4.8,4.8,0,0,1-2.95.11c-.82-.28-.16-.56,1.46-.62S245.8,152.67,245,153Zm-59.23,1.5c-5.46.19-9.67.09-9.35-.23,1.2-1.23,11.5-1.79,25.75-1.41,20,.52,23.72,1.17,7.12,1.24C201.82,154.14,191.24,154.32,185.77,154.51Zm29,20.91c-.35-.32,3-.67,7.53-.8,8-.21,8.09-.19,4.07,1.37C222.6,177.44,216.67,177.15,214.74,175.42Zm30,13.91c-2.72.18-5.28-.16-5.7-.77h0c-.83-1.21.29-1.25,6.49-.24l4.15.67Zm11.07,25.3a2.45,2.45,0,0,1-2.26,0c-.4-.36.29-.65,1.54-.65S256.74,214.24,255.8,214.63Zm-17.89-34.46c-6.32-.85-11.19-2-10.84-2.6s5.73-1,12.08-1c7,0,9.81-.2,7.27-.65h0c-8.9-1.57,13.88-1.43,40.16.25,18,1.15,29.87,1.37,36.64.67,5.51-.56,11.32-.61,12.92-.1,4.85,1.55-8.49,2.81-22.51,2.13-6.73-.32-23.93.17-38.23,1.11C253.46,181.44,247.6,181.46,237.91,180.17Zm27.41,34.08a4.8,4.8,0,0,1-2.95.11c-.82-.28-.16-.56,1.46-.62S266.12,213.91,265.32,214.25Zm11.82.74a13.65,13.65,0,0,1-4.73.15h0c-1.13-.24.07-.51,2.66-.59S278.6,214.66,277.14,215Zm2-29.18c-3.24.2-8.81.79-12.37,1.3-4.52.66-6.13.57-5.33-.28h0c1.44-1.53,15.22-2.94,20-2.05C284.49,185.34,284.14,185.5,279.13,185.81Zm10.52,33.4c-2.43.17-4.43-.2-4.45-.82h0c0-.61.11-1.06.27-1s2.17.44,4.45.81l4.15.67Zm65.55,37.58c-38.35.95-60.16,1.07-69.1.41-2.93-.22-9-.44-13.59-.5-11.17-.13-49.37-2.14-50.86-2.68h0c-.66-.23,2.53-.45,7.08-.49,19.45-.16,51.54-.13,60.83.06,5.53.11,22.81.28,38.4.38s36.34.58,46.1,1.06l17.74.86ZM352,246.59c2.27-.09,3.2.11,2.08.43a10.14,10.14,0,0,1-4.14.16h0C348.81,246.94,349.74,246.67,352,246.59Zm22.37-3.28c6.83.5,14,1.5,16,2.23,3.14,1.15,1.61,1.38-12.63,1.86-8.92.3-16,.18-15.71-.27s-.67-.69-2.1-.53a10,10,0,0,1-4.39-.52c-1-.45-6.79-1.19-12.91-1.64s-12.07-1.27-13.25-1.82a20.5,20.5,0,0,0-7.13-.82c-9.11.35-4.22-.67,8.34-1.74,7.3-.61,10-.61,6.5,0l-5.88,1.05,5.69,0h0c3.12,0,6.7-.6,7.94-1.29,1.56-.86,2.26-.89,2.28-.09s2.76,1.07,6.29.93,6.77.22,7.4.77S367.54,242.81,374.38,243.31Zm280.51-56.75c1.38,0,1.66.26.73.66a2.5,2.5,0,0,1-2.27,0h0C653,186.85,653.65,186.56,654.89,186.56Zm16.93,21.13c32.11-1.05,38.37-1,38.4.57,0,.81.56.76,1.65-.16s4-1.24,7.35-1.07c3.16.16,8.14.25,11.06.2,3.48-.06,4.77.27,3.73,1-1.34.87-1.33,1.12,0,1.58.89.3-.11.66-2.21.78s-3.85-.14-3.86-.61-6.65-.42-14.76.1c-10.17.66-14.75.57-14.77-.29,0-1.61-3.26-1.48-3.78.16-.3.92-1.68,1-5.12.2-2.59-.59-9.49-.95-15.33-.82s-14.62,0-19.5-.24h0C648.79,208.71,654.45,208.27,671.82,207.69Zm-30.6-20.44c2.28-.09,3.21.11,2.08.44a10.27,10.27,0,0,1-4.13.15C638,187.6,639,187.33,641.22,187.25ZM576,180.49c4.81-.22,8.46-.11,8.1.25-1.24,1.26-11.3,2-14.07,1.1C567.91,181.12,569.32,180.79,576,180.49Zm.51,5.16a4.73,4.73,0,0,1-3,.12c-.82-.29-.16-.57,1.46-.63S577.32,185.31,576.51,185.65Zm-6.21-.51c1.53.88,1.49,1-.27,1.12-1.14.05-2.08-.41-2.09-1C567.91,183.86,568,183.85,570.3,185.14Zm-12.49-3.67c4.54-.18,6.55-.05,4.46.28a47.15,47.15,0,0,1-8.26.32h0C551.56,181.91,553.27,181.64,557.81,181.47Zm1,4.85a4.8,4.8,0,0,1-2.95.11c-.82-.28-.16-.56,1.46-.62S559.61,186,558.81,186.32Zm-4.83,1c10.18.89,43.4-.34,42-1.55-.37-.34-4.19-.48-8.47-.32s-7.81-.18-7.82-.76a1.09,1.09,0,0,1,1.06-1.1h0a17.45,17.45,0,0,0,2.65-.41c.86-.2,7.84-.45,15.52-.55,10.32-.13,13.85.19,13.52,1.22s-2.81,1.35-8,1.28c-4.17-.06-7.31.12-7,.4.89.77,12.58,1.41,20.6,1.14,3.84-.13,6.6.16,6.13.63-1.81,1.83-73.42,2.43-74.66.62C549.11,187.31,550.83,187.08,554,187.35Zm-3.38,22.18c68.17-1.09,93.84-1.27,94.51-.67s-105.36,5.18-112.54,5c-2-.06-24.58.26-50.29.69-40.2.69-47.52.55-52.25-1-5.54-1.8-10-1.3-8.42.95.6.87-1.66,1.08-7.93.76-7.28-.38-9-.14-10.29,1.4-1.66,2-5.41,2.62-6.5,1-.37-.54-8.51-.75-18.09-.47s-21.68,0-26.89-.73-21.92-1.31-37.12-1.37-27.92-.39-28.27-.7h0c-.72-.64,21.51-1.64,22.29-1,1.14.94,56.38-.14,93.77-1.83,58.79-2.66,74.22-3,87.18-2.11C496.17,209.94,523.54,210,550.6,209.53Zm-37.81-37.92c1.38,0,1.66.26.73.65a2.45,2.45,0,0,1-2.26,0h0C510.85,171.9,511.55,171.61,512.79,171.61Zm5.81-.09c1.94-.05,2.6.18,1.46.51a7,7,0,0,1-3.54.09h0C515.71,171.84,516.65,171.57,518.6,171.52Zm6.56-48.21c-7.48-.12-17.48-.07-22.22.11s-8.34-.14-8-.71c.77-1.26,32.77-2.57,38.2-1.56C541.34,122.67,538.25,123.5,525.16,123.31Zm34.45-1.25a2.47,2.47,0,0,1-2.27,0c-.4-.36.29-.65,1.54-.65S560.54,121.67,559.61,122.06Zm7.15-.29a4.8,4.8,0,0,1-3,.11c-.82-.28-.16-.56,1.46-.62S567.56,121.43,566.76,121.77Zm-53.09-7.7c.36-.59-.56-1.24-2-1.46h0c-2.47-.36-2.44-.41.36-.66,1.67-.14,3.28,0,3.58.22s13,.28,28.25,0c26.79-.44,65.79.12,67.34,1,.41.22,6.29.33,13.07.23a167.63,167.63,0,0,1,17,.45c4.93.65-2.53.78-73.21,1.32C511.44,115.59,512.73,115.62,513.67,114.07Zm64.79,2.75a4.8,4.8,0,0,1-3,.11c-.82-.29-.16-.57,1.46-.63S579.26,116.47,578.46,116.82ZM581,121.3a45.28,45.28,0,0,1-8.26.32h0c-2.45-.15-.75-.42,3.8-.59S583,121,581,121.3Zm11.19-.45A10.27,10.27,0,0,1,588,121c-1.15-.24-.22-.5,2-.59S593.27,120.52,592.14,120.85ZM842.67,118c-3.51-.31-6.9-1-7.53-1.54s1.2-1,4.7-1.14c3.79-.12,6.44.42,7.53,1.53C848.89,118.4,848.43,118.51,842.67,118Zm15.77-.2c-4.24.25-7.38,0-7.4-.69,0-1.24,2.78-1.34,10-.38C865.45,117.31,865.24,117.39,858.44,117.8Zm21.23-1A13.6,13.6,0,0,1,875,117h0c-1.14-.24.06-.5,2.66-.59S881.13,116.5,879.67,116.83Zm149.81-98.61c2.27-.08,3.21.12,2.08.44a10.1,10.1,0,0,1-4.13.16C1026.29,18.58,1027.21,18.31,1029.48,18.22Zm-1.81,95.72c1.37,0,1.66.26.73.66a2.47,2.47,0,0,1-2.27,0C1025.73,114.23,1026.42,113.94,1027.67,113.94Zm-11.7-.66c2.07-.14,4.1.24,4.52.84.87,1.27-1,1.34-5.31.2C1012.34,113.57,1012.37,113.52,1016,113.28ZM725,105c11.69.12,31.36.13,43.7,0,19.33-.19,42.5-.21,62-.07,27.91.2,42.6.37,46.08.52,27.52,1.19,38.67,1.94,53.24,3.58,9.45,1.07,18.5,1.92,20.13,1.89,9.26-.16,35.73,1.19,40.73,2.08A43.81,43.81,0,0,0,1003,113c3.89-.62,6.26-.56,6.27.14,0,1.78,4.52,2.54,16.9,2.85,7.29.18,11.7-.13,12-.86s1-.49,1.65.38,2.27,1.23,4.54.64c2.46-.65,2.89-.56,1.61.33s-.79,1.18,2.39,1.09c5.49-.17,9.59.79,8.82,2-.34.56,2.16.92,5.56.79,6.87-.26,26.65,1.07,29.44,2,1.19.39.62.9-1.74,1.53l-3.52,1h3.69c2,0,4.26.61,5,1.36,1,1.08-.15,1.3-5.44,1-5-.24-6.62-.74-6.38-1.93s-.08-1.28-1.19-.37-4.21,1-9,.64c-7.84-.62-11.21-1.8-5.71-2,1.84-.07,2.89-.59,2.46-1.22s-3-1-5.7-.93c-7.13.25-13.88-.72-13.17-1.89.34-.55-1.14-.9-3.29-.78-3.25.19-3.51.37-1.52,1.11s1.37.93-2.34,1.12c-3.46.17-4.25-.07-3-.92s-.3-.92-4.74-.4a110.73,110.73,0,0,1-16.53.06c-5.53-.38-16.18-1-23.66-1.29s-20-.9-27.79-1.27-17.91-.77-22.46-.88-10.75-.41-13.77-.66c-3.64-.31-5.78,0-6.33.91s-1.06,1-1.68.14-11.07-1.25-30.3-1.28c-16.2,0-32.12-.41-35.38-.87s-14.69-.69-25.41-.52-17.35.42-14.75.54a28.3,28.3,0,0,1,7.12,1.2,28.13,28.13,0,0,0,5.34,1.39c4.06.58-76,1.82-93.28,1.43-9.55-.21-22.61,0-102.15,1.41-22.07.4-34.81.21-35.84-.55-1.18-.87-1.86-.75-2.63.48-.57.91-1,1.1-1.08.41s-2.85-1.69-6.27-2.22c-5.09-.8-3.32-1,9.73-.89,8.77,0,30-.34,47.23-.87s37.39-.92,44.86-.86c7.79.07,11.32-.17,8.26-.55l-5.33-.66,5.3-.55c2.92-.29-4.53-.55-16.55-.56-31.18,0-78.94-1.57-101.66-3.26h0L569.12,109l19.22-.74c10.57-.4,19.38-.59,19.58-.42s21.82-.46,48.06-1.41S713.26,104.82,725,105Z"/><path class="cls-1" d="M788.72,167.57a10.1,10.1,0,0,0,4.13-.16c1.13-.32.2-.52-2.08-.43S787.58,167.33,788.72,167.57Z"/><path class="cls-1" d="M595.53,164.7c-4.8-.7-6.82-.56-6.8.46,0,1.24,8.26,2,9,.78.29-.47-.69-1-2.17-1.24Z"/><path class="cls-1" d="M629.57,168.48c-2,.05-2.89.32-2.08.6A7.14,7.14,0,0,0,631,169h0C632.17,168.66,631.51,168.43,629.57,168.48Z"/><path class="cls-1" d="M972.28,174.88c-3.24.11-4.71.38-3.25.59a22.05,22.05,0,0,0,5.9-.21h0C976.72,174.94,975.53,174.77,972.28,174.88Z"/><path class="cls-1" d="M584,165.46c0,.62.82,1.1,1.79,1.06s1.76-.57,1.75-1.19-.83-1.1-1.8-1.06S584,164.84,584,165.46Z"/><path class="cls-1" d="M1091.28,173a2.48,2.48,0,0,0,2.26,0h0c.93-.4.65-.66-.73-.66S1090.88,172.66,1091.28,173Z"/><path class="cls-1" d="M808.22,180.72a3.47,3.47,0,0,0,2.75,1c1.72-.08,1.75-.23.2-1.11h0C808.83,179.27,807.27,179.33,808.22,180.72Z"/><path class="cls-1" d="M845.41,179.66c-3.57.13-5,.4-3.24.59a27.66,27.66,0,0,0,6.49-.24h0C850.44,179.68,849,179.52,845.41,179.66Z"/><path class="cls-1" d="M865.82,180.36a2.48,2.48,0,0,0,2.27,0h0c.93-.39.65-.65-.73-.65S865.42,180,865.82,180.36Z"/><path class="cls-1" d="M1070.73,187.78c-3,.09-2.07.7,2.29,1.47,2.6.45,3.08.33,1.77-.46A8.94,8.94,0,0,0,1070.73,187.78Z"/><path class="cls-1" d="M1045.12,169.12a2.45,2.45,0,0,0,2.26,0h0c.93-.39.65-.65-.73-.65S1044.72,168.76,1045.12,169.12Z"/><path class="cls-1" d="M1070,171.57a2.45,2.45,0,0,0,2.26,0h0c.94-.39.65-.65-.72-.65S1069.58,171.21,1070,171.57Z"/><path class="cls-1" d="M810.25,166.35c-4.54.18-6.25.45-3.8.6a46.16,46.16,0,0,0,8.26-.32h0C816.8,166.3,814.79,166.18,810.25,166.35Z"/><path class="cls-1" d="M1083.56,172.25a4.8,4.8,0,0,0,3-.11c.8-.34.13-.57-1.49-.51S1082.74,172,1083.56,172.25Z"/><path class="cls-1" d="M1054.59,169.89a2.45,2.45,0,0,0,2.26,0c.93-.39.65-.65-.73-.65S1054.18,169.53,1054.59,169.89Z"/><path class="cls-1" d="M874.05,167c1.31.48,5.31.72,8.88.52l6.48-.35-7.09-.48h0C872.07,166,871.4,166,874.05,167Z"/><path class="cls-1" d="M856.05,167.3a10.1,10.1,0,0,0,4.13-.16c1.13-.33.19-.52-2.08-.44S854.9,167.05,856.05,167.3Z"/><path class="cls-1" d="M947,166a2.45,2.45,0,0,0,2.26,0c.94-.39.65-.65-.72-.65S946.6,165.68,947,166Z"/><path class="cls-1" d="M903.25,164.3a2.47,2.47,0,0,0,2.27,0h0c.93-.39.64-.65-.73-.65S902.85,163.94,903.25,164.3Z"/><path class="cls-1" d="M768,255.42c-4.23.86-3.11,1,5.56.55,6-.29,9.94-.83,8.83-1.21C779.76,253.85,774.55,254.09,768,255.42Z"/><path class="cls-1" d="M894,263.17a55,55,0,0,0-10.06-.49c-6.43.24-6.45.25-1.75,1a59,59,0,0,0,10.06.48C897.06,263.92,897.23,263.83,894,263.17Z"/><path class="cls-1" d="M11.34,112.19c.8-.35.13-.58-1.49-.52s-2.28.34-1.46.63A4.8,4.8,0,0,0,11.34,112.19Z"/><path class="cls-1" d="M14.9,112a2.47,2.47,0,0,0,2.27,0h0c.93-.4.65-.65-.73-.65S14.5,111.63,14.9,112Z"/><path class="cls-1" d="M17.14,120.24a1.12,1.12,0,0,0,1.2,1.08,1.18,1.18,0,0,0,1.16-1.17,1.15,1.15,0,0,0-1.21-1.08A1.17,1.17,0,0,0,17.14,120.24Z"/><path class="cls-1" d="M130.45,269.27c1,.55,4.71,1.19,8.3,1.43,12.71.83,36.13,2.71,38.47,3.08,4.35.68,35.19,2,62.08,2.66,10.73.26,27.29.68,36.81.94s26.26,0,37.2-.48L333.2,276l-25.39.16c-52.92.34-92.19-1.36-133.62-5.77-6.84-.72-18.55-1.48-26-1.67C127.49,268.17,128.42,268.14,130.45,269.27Z"/><path class="cls-1" d="M153.94,263c-2.28.09-3.2.35-2.06.59a9.92,9.92,0,0,0,4.13-.15h0C157.14,263.15,156.21,263,153.94,263Z"/><path class="cls-1" d="M73.51,207.77l-5.27,1.88,8.24-1c4.54-.54,8.74-1.46,9.35-2h0C87.58,204.91,79.38,205.68,73.51,207.77Z"/><path class="cls-1" d="M105,188.14c-1.63.06-2.28.34-1.47.62a4.69,4.69,0,0,0,3-.11C107.24,188.31,106.57,188.08,105,188.14Z"/><path class="cls-1" d="M87.92,192.39c1-.39,1.75-.91,1.74-1.16s-.8-.41-1.78-.37-1.76.55-1.74,1.16S87,192.78,87.92,192.39Z"/><path class="cls-1" d="M92.72,221.11c0,.62,2.28,1,5,.79l5-.33-4.15-.68h0c-2.28-.37-4.55-.72-5-.79S92.7,220.49,92.72,221.11Z"/><path class="cls-1" d="M64.17,226.35h0c1.14-.33.48-.56-1.46-.51s-2.89.32-2.08.6A7,7,0,0,0,64.17,226.35Z"/><path class="cls-1" d="M106.34,197.11c-1.63.06-2.28.34-1.47.62a4.8,4.8,0,0,0,2.95-.11C108.63,197.28,108,197.05,106.34,197.11Z"/><path class="cls-1" d="M135.22,296.46c-2.6.09-3.79.35-2.66.59a13.59,13.59,0,0,0,4.72-.15h0C138.75,296.57,137.82,296.38,135.22,296.46Z"/><path class="cls-1" d="M184,291.39c1-.89-17.14.37-21.72,1.51-3.2.8-.56.82,8.27.06,7.13-.62,13.18-1.32,13.45-1.57Z"/><path class="cls-1" d="M364.72,272.52c.8-.34.13-.57-1.49-.51s-2.28.34-1.46.62A4.8,4.8,0,0,0,364.72,272.52Z"/><path class="cls-1" d="M256.35,285.61c.8-.34.13-.57-1.49-.51s-2.28.34-1.47.62A4.83,4.83,0,0,0,256.35,285.61Z"/><path class="cls-1" d="M801.17,254.35l-4.23.26,3.41.84c1.88.46,9.23.92,16.34,1,22.73.32,47.2.94,63.61,1.61,8.78.35,18.62.38,21.86.07,7.28-.72-50.1-2.75-83.28-2.95-6.79,0-12.6-.31-12.91-.59h0C805.65,254.33,803.49,254.21,801.17,254.35Z"/><path class="cls-1" d="M985.56,263.29c-1.63.06-2.28.34-1.46.63a4.8,4.8,0,0,0,2.95-.11C987.85,263.46,987.18,263.23,985.56,263.29Z"/><path class="cls-1" d="M994.05,263.56h0c.94-.39.65-.65-.72-.65s-1.94.29-1.54.65A2.45,2.45,0,0,0,994.05,263.56Z"/><path class="cls-1" d="M932.14,259c-.43-.41-5.22-.87-10.66-1s-10.11-.45-10.38-.67c-.7-.57-1.79.65-1.12,1.25C910.88,259.37,933,259.82,932.14,259Z"/><path class="cls-1" d="M970.49,262.11a2.47,2.47,0,0,0,2.27,0h0c.93-.4.64-.65-.73-.65S970.09,261.75,970.49,262.11Z"/></svg>