<svg id="Layer_1" data-name="Layer 1" xmlns="http://www.w3.org/2000/svg" viewBox="0 0 1920 346.01"><defs><style>.cls-1{fill:#e7e8e2;}</style></defs><title>green-right</title><path class="cls-1" d="M502.9,101.84c-1.07.91-3.79,1-6.08.2-2.52-.87-1.77-1.53,1.92-1.66C502.08,100.26,503.94,100.91,502.9,101.84Z"/><path class="cls-1" d="M157.48,83.84c-4.07-3.56-.93-7.16,3.94-4.53h0c1.89,1,2.54,3.12,1.45,4.67C161.53,85.87,159.75,85.82,157.48,83.84Z"/><path class="cls-1" d="M140.78,119.55c-10.76,0-17.28,1.87-25.43,7.3-6,4-10.26,7.92-9.41,8.66s.14,3.7-1.61,6.55c-3.44,5.65-15.52,6.91-20.89,2.21-2.4-2.09-7.71-1.17-18.22,3.14-12.25,5-18,5.77-32.85,4.24-20.43-2.1-27.1-5.81-19.5-10.83,7.12-4.72,10-13.09,5.94-17.33-2.82-3-1.31-3.37,7.87-2.06,7.42,1,11.35.52,11.35-1.53,0-1.72,2.84-3.13,6.33-3.13s6.33-1.84,6.33-4.15a4,4,0,0,0-3.77-4.16c-2.07,0-1-1.85,2.37-4.15,5.9-4,5.9-4.29.43-7.14C45.5,95,44.9,93.24,47.39,90.61c1.85-2,3-6.53,2.55-10.16-.75-5.91.56-6.68,12.63-7.44,8-.5,13.47.34,13.47,2.07A3,3,0,0,1,72.87,78c-1.74,0-3.17,1.87-3.17,4.17,0,2.78,3.21,4.15,9.81,4.15,7.14,0,10.25,1.5,11.45,5.53,1.34,4.45,4.32,5.54,15.21,5.54,8.48,0,14.16,1.41,15.2,3.76.89,2.06,6.89,4.48,13.28,5.4s13.67,3.11,16.13,4.89C158.61,117.13,155.64,119.55,140.78,119.55Z"/><path class="cls-1" d="M367.36,80.31a14.77,14.77,0,0,0-6.79,4.26c-1.21,1.63-3,2.3-3.94,1.47-3.5-3.07,6.68-11.68,11-9.33C371.22,78.62,371.16,79.24,367.36,80.31Z"/><path class="cls-1" d="M227.32,86.54a11.4,11.4,0,0,1-11.09,0c-4.52-2.3-3.5-2.82,5.55-2.82S231.85,84.24,227.32,86.54Z"/><path class="cls-1" d="M35.92,160.14c1.15,1,2.11,4.76,2.11,8.32,0,5.33-1.67,6.45-9.52,6.45-6.33,0-9.5-1.39-9.5-4.14,0-2.3,1.58-4.17,3.51-4.17s2.69-1.86,1.68-4.15C22.34,158.22,31.6,156.39,35.92,160.14Z"/><path class="cls-1" d="M387.32,199c5.71,2.7,1.08,3.55-17.42,3.17l-19.81-.38,17.42-2C377.1,198.8,386,198.42,387.32,199Z"/><path class="cls-1" d="M126.9,176.39c2.56,1.38,2.14,3.22-1.42,6.35s-6,3.52-8.37,1.49C112.89,180.54,121.63,173.55,126.9,176.39Z"/><path class="cls-1" d="M312.87,89.44a3.12,3.12,0,0,1-2.38-3.12c0-4,15-3.41,16.92.69.87,1.89,1.71,3.6,1.84,3.77S317.31,90.1,312.87,89.44Z"/><path class="cls-1" d="M16.64,270.88a13.7,13.7,0,0,1-7.92,0c-2.18-.76-.4-1.39,4-1.39S18.81,270.12,16.64,270.88Z"/><path class="cls-1" d="M24.46,177.69c.72,0,4.06,1.29,7.43,2.85,6.85,3.21,8.15,13.65,2.34,18.74-4.49,3.91-29.86,4.49-32.52.73C.16,197.82,20.67,177.69,24.46,177.69Z"/><path class="cls-1" d="M473.65,327.2c2.62,0,4.76,1.25,4.76,2.77s-2.14,2.77-4.76,2.77-4.74-1.25-4.74-2.77S471,327.2,473.65,327.2Z"/><path class="cls-1" d="M0,294.21v4.51c0,1.09,5.35,1.76,11.87,1.49s14.76-.56,18.24-.67S54.4,298,76.35,296.25q56.7-4.39,56.73,2.73c0,5.46-21.52,12.68-38.82,13-19.45.41-26.62,3.71-23.49,10.84,2.12,4.83,13.3,5.9,16.36,1.58,3.37-4.77,14.32-3.34,12.15,1.59-1.65,3.75.67,4.16,16.66,3,11.9-.9,20.2-.24,23.1,1.87,2.48,1.81,8.22,3.46,12.75,3.72s18.2,1.39,30.39,2.57c33.68,3.27,163.78,2.59,260.58-1.33,3.94-.17,7.14-1.4,7.14-2.75s-3.2-3.34-7.14-4.44c-6.37-1.79-6-2.18,4-3.83,6.1-1,21.07-1.42,33.27-.94s33.93,1.1,48.31,1.39c22.61.45,26.14,1.18,26.14,5.39,0,3.42,2.49,4.88,8.31,4.88,7.26,0,7.78-.56,4.1-4.44-4.43-4.65-1.07-4.63,61.25.39,11.36.91,15,.28,15-2.61,0-5.87,22.77-7.6,27.78-2.1,3.66,4,6.43,4,31.69-.44a377.7,377.7,0,0,1,56.18-4.66c15.69.1,37.32-1,48.07-2.41,11.21-1.51,24.64-1.62,31.48-.27,6.58,1.29,12.75,2.16,13.72,1.94s5.09,1.18,9.13,3.14c6,2.92,9.71,2.84,20.86-.48,8.78-2.62,15.33-3.14,18.7-1.48,5.93,2.9,58.65,1.34,105.17-3.12,17.42-1.68,45.23-3.55,61.77-4.18s50.58-2,75.59-3.05c35.85-1.51,46-1.16,48,1.7,1.93,2.71,18.13,3.87,65.41,4.62,34.57.57,65.71,1.12,69.18,1.22,19.61.6,113.06-4.1,125.15-6.29a353.81,353.81,0,0,1,36.44-3.7c21.71-1.1,36.38-2.66,52.27-5.58,11.26-2.07,110-7.83,125.15-7.31,7,.24,18.54-1.49,25.69-3.84,9.49-3.12,15.24-3.54,21.16-1.57,11.72,3.89,57.92-2.27,75.13-10,4.35-2,10.06-3.61,12.67-3.67,10.29-.23,25.78-17,27.33-29.64a47.58,47.58,0,0,1,2.33-10.42c1.68-3.83,25.44-15.24,31.73-15.24,6.71,0,13.38-8.71,17.92-23.37,3.21-10.38,3.32-13.94.49-14.77-4.57-1.32-5-10.72-.59-13.09,5.64-3,3.47-12.9-3.17-14.42-11.8-2.71-6.74-7.12,6.39-5.57,10.21,1.18,13.33.47,15.83-3.62,4.6-7.51,4.05-8.23-6.37-8.23-10.86,0-11.14-1-3.51-12.46,4.56-6.81,7.94-8.46,18.79-9.15,13.1-.84,17.49-4.82,8.63-7.79v0c-2.53-.84-6-.78-7.71.15-4.73,2.54-7.72-3.7-3.75-7.88a8,8,0,0,0,1.63-7.94c-1-2.34.63-8.42,3.7-13.5a50.69,50.69,0,0,0,6-20.33c.4-9.62-1.25-12.45-12.46-21.53-7.66-6.24-15.11-10-18.34-9.31-5.43,1.2-6.22,0-10.26-15.78-1.36-5.36-3.46-7.38-6.59-6.33-2.51.84-12.08,2.37-21.25,3.38s-19.14,3.73-22.19,6c-4.42,3.36-10.9,3.88-32.39,2.54a233.6,233.6,0,0,0-51.51,2.36c-23.87,3.9-62.11,3.82-86.81-.19-9.52-1.53-12.63-.78-18.31,4.56s-7.74,5.91-13.11,3c-6.46-3.53-18.24-2.42-30.76,2.88-5.32,2.25-9,2.13-14.7-.52-5.24-2.44-9.3-2.7-13.16-.81-5.05,2.47-4.7,3.25,3.52,7.92L1576,43.4l-17.33,2.11c-9.52,1.16-33.71,2.67-53.75,3.35s-48,2.08-62.12,3.11c-17.82,1.29-26.37.9-27.91-1.29-2.89-4.07-13.65-4-15.2,0-.82,2.12-11.84,3.08-33.54,2.91-28.36-.21-32.32.32-32.37,4.44s-.5,4.07-3,.63c-3.49-4.82-23.19-5.26-45-1-10.78,2.1-17.71,2-25.74-.44-8.58-2.56-12.68-2.56-18.52.06-11.75,5.23-28.56,6.93-41.9,4.23-8.66-1.76-17.42-1.28-30.11,1.64-10,2.33-23.11,3.41-29.84,2.49-8.94-1.2-12.42-.57-13.78,2.54s-3.35,3.43-7.42,1.52c-4.82-2.25-25-2.58-125.25-2-8.71.06-33.67-.75-55.45-1.76s-42.45-1.67-45.93-1.44-69.07.92-145.75,1.5-149.38,1.21-161.58,1.39-35,.1-50.69-.18C493.38,66.55,410.93,68.83,399.7,71c-5.21,1-10.25,3.6-11.23,5.79s-4.64,4-8.18,4-6.44,1.2-6.44,2.65c0,2.31,31.14.93,34.46-1.53.66-.5,5.65,1.22,11.1,3.78,8.17,3.87,19.82,4.73,66.92,5,58,.26,78,2.15,76.75,7.23-1.23,4.89,85.1,8.93,92,4.29,7.91-5.35,3.58-6.57-15.28-4.32q-19.26,2.3-25.77-.76c-12-5.63-.36-6.85,55.2-5.74,30.11.6,61.65.91,70.06.7,8.67-.22,14.53.72,13.51,2.17-2.17,3.07,8.51,5.86,22.57,5.91,7.77,0,9.77-.94,8.37-4.11-2.88-6.57,10.39-5.12,15.88,1.72a37.34,37.34,0,0,0,11.76,9c8.15,3.62,14.72,11.72,11.66,14.38-1.15,1-6.67.45-12.23-1.25s-18.49-3.09-28.69-3.09c-14.66,0-18.53.9-18.53,4.32,0,2.37-1.44,3.53-3.22,2.58s-2.48-2.79-1.57-4.08-4.41-3.21-11.83-4.26-15.13-3.12-17.16-4.55c-2.32-1.63-4.44-1.5-5.73.32-1.13,1.6,0,2.9,2.55,2.9,8.49,0,8.84,8.14.41,9.67-4.29.77-11.19,2-15.35,2.75-4.65.85-10.59-.74-15.55-4.15-4.4-3-9.45-5.5-11.2-5.5a6,6,0,0,1-4.8-3.46c-1.15-2.46-2.36-2.58-4.23-.41-7.14,8.32-51.92,9.82-70,2.34-10.4-4.32-11.45-4.23-24.61,1.87-7.56,3.5-12.92,7.53-11.91,9s-1.73,1.81-6.86.68c-5.32-1.17-10.53-.58-13.42,1.52s-11.41,3.08-21.08,2.59c-41.21-2.06-52.5-1.34-58.89,3.71-4.61,3.64-9.17,4.56-16.75,3.35-12.79-2.06-22.65,2.19-15.18,6.53a17.74,17.74,0,0,0,9.5,2.12c2.63-.35,5.09.59,5.5,2.09s-9.89,2.76-25.34,2.81c-14.35.05-28.95,1.29-32.43,2.75-5.39,2.25-47.59,2.81-91.16,1.21-17.31-.63-23.15,1.75-17.88,7.32,3.31,3.47,7.69,4,21.47,2.47,15.84-1.73,16.89-1.52,12.27,2.52-3.49,3-10.88,4.41-24.08,4.41-10.49,0-19.94,1.26-21.05,2.81s-3.07,2.24-4.39,1.52-9.92.42-19.11,2.53c-12.68,2.93-18.54,3.11-24.46.74-6.26-2.49-9.62-2.13-17.16,1.75-5.4,2.79-12,4.11-15.67,3.1a29.82,29.82,0,0,0-13.37.2l-7.09,2,6.95,2.24c3.82,1.24,16.63,2.32,28.47,2.42s41.48.72,65.87,1.41c58.2,1.63,137.41,1.42,142.79-.38,2.34-.79,10.63,1.35,18.41,4.74,10.75,4.68,17.62,5.82,28.65,4.74,8-.79,14.5-.45,14.5.73s6.78,2.86,15,3.71c30.85,3.17,42,5.18,42,7.59,0,1.36,2.77,2.47,6.15,2.47,15.72,0,7.42,8.73-9.31,9.79-30.44,2-58.3,4.59-75.34,7.18-10.95,1.66-22.86,2.35-26.45,1.52s-8.54-.82-11,0c-8.44,2.82-1,6.2,17.81,8.06,17.94,1.77,22.8,4.26,15.75,8.08-1.74.92-12.07,1.68-23,1.68-32.82,0-43.05,2-44.17,8.92-.84,5.16-3.32,6.12-17.62,6.85-9.14.45-16.63,1.84-16.63,3.07s-4.89,1.77-10.88,1.19-11.81.29-12.94,1.92c-1.46,2-3.3,2.06-6.08,0-4.39-3.18-28.4-2.27-65.16,2.47-13.06,1.69-41.64,2.86-63.5,2.61-22.68-.27-42.43.77-46,2.42-4.2,2-15.31,2-34.7.24-29.23-2.7-54.39-.26-71.28,6.94-4.36,1.86-15.4,3.13-24.55,2.81S0,292.8,0,294.21ZM494.35,155.9c-5.5,1-14.91.46-20.89-1.14-11.85-3.18-14.59-7.53-4.74-7.53,3.38,0,7.07-1.3,8.19-2.88,2.5-3.53,13.71-.81,21.6,5.26C504.09,153.9,503.91,154.18,494.35,155.9Zm888.41-91.74c2.71,0,4.93,1.26,4.93,2.77a2.89,2.89,0,0,1-3,2.77,7,7,0,0,1-4.94-2.77C1378.7,65.42,1380,64.16,1382.76,64.16ZM1322.4,76c2.15-1.89,14.59,4.64,14.59,7.64,0,1.46-2.68,2.67-6,2.67C1325.47,86.32,1319.2,78.8,1322.4,76Zm-85.58-3.53c4.56,0,8.31-1.26,8.31-2.78a2.72,2.72,0,0,1,2.63-2.77c5.88,0,1.41,12.49-4.74,13.3-3.5.45-8.2-1.12-10.44-3.47C1229.07,73.08,1229.67,72.48,1236.82,72.48Zm-32.75,1.3c4.81-2.6,19.52,1.07,17.23,4.31-1,1.48-5.29,2.68-9.45,2.68C1203.45,80.77,1198.82,76.63,1204.07,73.78ZM1176.82,78c5.56,0,6.38,1.68,2,4a3.92,3.92,0,0,1-4.94-1.21C1172.78,79.27,1174.1,78,1176.82,78ZM974.91,94.31c1.94-1.69,5.08-2.24,7-1.22q8,4.29-3.53,4.3C973.24,97.39,972.33,96.57,974.91,94.31ZM862.62,145.73c6.11-2.07,24.5,3.46,24.5,7.37,0,1.35-3.22,2.39-7.14,2.33s-10.7-1.83-15.05-4C857.93,148.08,857.66,147.41,862.62,145.73ZM875.23,114a24.6,24.6,0,0,1-9.84-2.42c-6-3.33.91-6.72,9.08-4.45C882.25,109.25,882.78,114,875.23,114Zm-32.47,33.19c0-1.48,2.14-2.69,4.74-2.69s4.76.49,4.76,1.08-2.13,1.82-4.76,2.69S842.76,148.62,842.76,147.15Zm-19-52.9c0-1.32,4.53-2.4,10-2.4s12.3-1.69,15.06-3.77c6.5-4.9,24.8-7.88,27.24-4.45,1,1.48,4.75,2.69,8.24,2.69,7.26,0,19.95,5.28,17.61,7.34-.85.75-18.79,1.72-39.87,2.17S823.74,95.56,823.74,94.25ZM645.08,146.39c5.71,2,5.71,2.11.2,3.08-3.19.56-6.63.28-7.65-.61C634.22,145.88,639,144.3,645.08,146.39Zm-29.64.88c4.78,0,8.71,1.21,8.71,2.73s-1.79,2.74-4,2.71a22.08,22.08,0,0,1-8.72-2.71C607.77,147.9,608.65,147.3,615.44,147.27Zm-182,121.83c8.31,0,12.88,1,11.7,2.71s-5.09,2.76-8.91,2.73-9.08-1.25-11.69-2.73C421.08,269.86,423.46,269.12,433.45,269.1Zm-42.16-2.46,8.17-.17c4.5-.1,9.23.73,10.5,1.84,3.76,3.28-2.79,3.88-11,1h0Zm-198,36.08c4.35,0,6.14.62,3.95,1.39a13.83,13.83,0,0,1-7.91,0C187.12,303.34,188.91,302.72,193.27,302.72Z"/><path class="cls-1" d="M685.26,100.44c-5.23-2.66-5.16-2.88.93-3,3.64,0,7.64.83,8.91,1.94C698.92,102.75,691.35,103.54,685.26,100.44Z"/></svg>